<?xml version="1.0" encoding="UTF-8" standalone="no"?>
<!-- Created with Inkscape (http://www.inkscape.org/) -->

<svg
   xmlns:dc="http://purl.org/dc/elements/1.1/"
   xmlns:cc="http://creativecommons.org/ns#"
   xmlns:rdf="http://www.w3.org/1999/02/22-rdf-syntax-ns#"
   xmlns:svg="http://www.w3.org/2000/svg"
   xmlns="http://www.w3.org/2000/svg"
   xmlns:sodipodi="http://sodipodi.sourceforge.net/DTD/sodipodi-0.dtd"
   xmlns:inkscape="http://www.inkscape.org/namespaces/inkscape"
   width="210mm"
   height="297mm"
   viewBox="0 0 744.09448819 1052.3622047"
   id="svg2"
   version="1.1"
   inkscape:version="0.91 r13725"
   sodipodi:docname="hud.svg">
  <defs
     id="defs4" />
  <sodipodi:namedview
     id="base"
     pagecolor="#ffffff"
     bordercolor="#666666"
     borderopacity="1.0"
     inkscape:pageopacity="0.0"
     inkscape:pageshadow="2"
     inkscape:zoom="1.8101934"
     inkscape:cx="217.76958"
     inkscape:cy="688.57963"
     inkscape:document-units="px"
     inkscape:current-layer="layer1"
     showgrid="false"
     inkscape:snap-bbox="false"
     inkscape:bbox-paths="false"
     inkscape:snap-global="true"
     inkscape:bbox-nodes="false"
     inkscape:snap-bbox-edge-midpoints="false"
     inkscape:snap-bbox-midpoints="true"
     inkscape:object-paths="false"
     inkscape:object-nodes="true"
     inkscape:snap-smooth-nodes="true"
     inkscape:window-width="1680"
     inkscape:window-height="988"
     inkscape:window-x="1272"
     inkscape:window-y="-8"
     inkscape:window-maximized="1" />
  <metadata
     id="metadata7">
    <rdf:RDF>
      <cc:Work
         rdf:about="">
        <dc:format>image/svg+xml</dc:format>
        <dc:type
           rdf:resource="http://purl.org/dc/dcmitype/StillImage" />
      </cc:Work>
    </rdf:RDF>
  </metadata>
  <g
     inkscape:label="Layer 1"
     inkscape:groupmode="layer"
     id="layer1">
    <g
       id="g4148"
       transform="translate(-25.253814,-143.44166)"
       inkscape:export-filename="C:\Users\Bart\Desktop\ld32\assets\graphics\bar_outline.png"
       inkscape:export-xdpi="53.015507"
       inkscape:export-ydpi="53.015507">
      <circle
         r="61.114227"
         cy="230.6031"
         cx="114.14724"
         id="path4142"
         style="fill:#ff7f2a;stroke:none" />
      <circle
         style="fill:#d45500;stroke:none"
         id="circle4144"
         cx="114.14724"
         cy="230.6031"
         r="46.972092" />
    </g>
    <circle
       style="fill:#88aa00;stroke:none"
       id="circle4146"
       cx="88.893425"
       cy="87.161446"
       r="39.648483"
       inkscape:export-filename="C:\Users\Bart\Desktop\ld32\assets\graphics\bar_inner.png"
       inkscape:export-xdpi="53.343761"
       inkscape:export-ydpi="53.343761" />
    <g
       id="g4215"
       transform="matrix(0.8818867,0,0,0.8818867,-150.25374,-47.143637)"
       inkscape:export-filename="C:\Users\Bart\Desktop\ld32\assets\graphics\heart.png"
       inkscape:export-xdpi="53.4151"
       inkscape:export-ydpi="53.4151">
      <g
         style="fill:#ececec"
         id="g4191"
         transform="matrix(0.81869076,0,0,0.85278971,61.163885,70.145569)">
        <circle
           r="30.46875"
           cy="91.306915"
           cx="241.28847"
           id="circle4193"
           style="fill:#ececec;stroke:none" />
        <circle
           style="fill:#ececec;stroke:none"
           id="circle4195"
           cx="271.75723"
           cy="91.306915"
           r="30.46875" />
        <path
           sodipodi:nodetypes="zzzz"
           inkscape:connector-curvature="0"
           id="path4197"
           d="m 210.81972,91.306919 c -0.0992,-30.134162 91.44465,-30.569195 91.40625,0 -0.0384,30.569191 -41.28898,45.871391 -45.3125,45.703121 -4.02352,-0.16827 -45.99458,-15.56896 -46.09375,-45.703121 z"
           style="fill:#ececec;stroke:none" />
      </g>
      <g
         transform="matrix(0.66759972,0,0,0.69540564,99.922183,86.23786)"
         id="g4178">
        <circle
           style="fill:#c83737;stroke:none"
           id="path4168"
           cx="241.28847"
           cy="91.306915"
           r="30.46875" />
        <circle
           r="30.46875"
           cy="91.306915"
           cx="271.75723"
           id="circle4170"
           style="fill:#c83737;stroke:none" />
        <path
           style="fill:#c83737;stroke:none"
           d="m 210.81972,91.306919 c -0.0992,-30.134162 91.44465,-30.569195 91.40625,0 -0.0384,30.569191 -41.28898,45.871391 -45.3125,45.703121 -4.02352,-0.16827 -45.99458,-15.56896 -46.09375,-45.703121 z"
           id="rect4175"
           inkscape:connector-curvature="0"
           sodipodi:nodetypes="zzzz" />
      </g>
    </g>
    <flowRoot
       xml:space="preserve"
       id="flowRoot4146"
       style="fill:black;stroke:none;stroke-opacity:1;stroke-width:1px;stroke-linejoin:miter;stroke-linecap:butt;fill-opacity:1;font-family:Pericles;font-style:normal;font-weight:normal;font-size:90px;line-height:125%;letter-spacing:0px;word-spacing:0px;-inkscape-font-specification:Pericles;font-stretch:normal;font-variant:normal;"><flowRegion
         id="flowRegion4148"><rect
           id="rect4150"
           width="525.91064"
           height="216.55145"
           x="139.21165"
           y="246.92339"
           style="-inkscape-font-specification:Pericles;font-family:Pericles;font-weight:normal;font-style:normal;font-stretch:normal;font-variant:normal;font-size:90px;" /></flowRegion><flowPara
         id="flowPara4152"></flowPara></flowRoot>    <g
       style="font-style:normal;font-variant:normal;font-weight:bold;font-stretch:normal;font-size:80px;line-height:125%;font-family:'Comic Sans MS';-inkscape-font-specification:'Comic Sans MS Bold';letter-spacing:0px;word-spacing:0px;fill:#000000;fill-opacity:1;stroke:none;stroke-width:1px;stroke-linecap:butt;stroke-linejoin:miter;stroke-opacity:1"
       id="text4154"
       transform="translate(-18.782524,-34.250485)">
      <path
         d="m 152.50558,258.35483 q -3.51563,0 -5.19532,-3.71094 -0.78125,-1.75781 -1.5625,-2.10937 -0.58593,-0.27344 -3.08593,-0.27344 -4.92188,0 -11.36719,7.65625 -9.02344,10.70312 -9.02344,20.03906 0,4.25781 2.85156,7.30469 2.85157,3.04687 6.83594,3.04687 3.86719,0 7.85156,-2.03125 1.40625,-0.74218 5.9375,-3.82812 3.04688,-2.03125 4.60938,-2.03125 2.34375,0 3.98437,1.71875 1.52344,1.60156 1.52344,3.67187 0,2.30469 -2.03125,4.02344 -10.74219,9.0625 -21.875,9.0625 -8.78906,0 -14.84375,-6.40625 -5.78125,-6.17187 -5.78125,-14.53125 0,-13.08594 11.44531,-26.71875 9.72657,-11.5625 19.88282,-11.5625 1.71875,0 3.08593,0.11719 1.40625,0.11719 2.46094,0.35156 1.71875,-1.67969 4.14063,-1.67969 3.98437,0 4.92187,4.57032 0.66406,3.28125 0.66406,7.65625 0,1.95312 -1.13281,3.55468 -1.48437,2.10938 -4.29687,2.10938 z"
         id="path4159"
         inkscape:connector-curvature="0" />
      <path
         d="m 178.98995,302.26108 q -7.22656,0 -12.42187,-4.96094 -5.70313,-5.42969 -5.97657,-14.49219 -0.27343,-8.63281 4.72657,-15.39062 5.9375,-7.96875 16.52343,-7.96875 7.8125,0 12.42188,6.25 4.14062,5.625 4.14062,13.94531 0,9.0625 -4.84375,15.46875 -5.42968,7.14844 -14.57031,7.14844 z m 2.34375,-32.5 q -4.80469,-0.0391 -7.57812,4.375 -2.34375,3.71094 -2.34375,8.67187 0,4.6875 2.65625,7.1875 2.10937,1.99219 4.92187,1.99219 3.39844,0 5.89844,-2.30469 2.85156,-2.69531 3.04687,-7.30468 0.50782,-12.57813 -6.60156,-12.61719 z"
         id="path4161"
         inkscape:connector-curvature="0" />
      <path
         d="m 235.7087,302.72983 q -4.80469,0 -5.35156,-4.72656 -0.54688,-4.02344 -1.09375,-8.08594 -0.58594,-4.29688 -0.58594,-8.08594 0,-1.01562 0.11719,-3.47656 0.15625,-2.46094 0.15625,-3.47656 0,-0.27344 0.0781,-1.36719 0.0781,-1.13281 0.0781,-1.83594 0,-3.24219 -1.67969,-3.24219 -3.59375,0 -7.07031,4.21875 -3.4375,4.17969 -5.39063,10.625 -0.0781,1.28907 -0.35156,3.4375 -0.23437,1.75782 -0.23437,3.4375 0,1.09375 0.23437,3.32032 0.27344,2.1875 0.27344,3.28125 0,2.22656 -1.5625,3.67187 -1.52344,1.48438 -3.86719,1.48438 -2.34375,0 -3.86719,-1.48438 -1.52343,-1.44531 -1.52343,-3.67187 0,-1.09375 -0.23438,-3.28125 -0.23437,-2.22657 -0.23437,-3.32032 0,-3.75 0.54687,-10.42968 0.54688,-6.67969 0.54688,-10.42969 0,-1.17188 -0.15625,-3.47656 -0.11719,-2.34375 -0.11719,-3.47657 0,-2.1875 1.5625,-3.59375 1.60156,-1.44531 3.90625,-1.44531 5.11719,0 5.46875,6.13281 l 0.0391,0.42969 q 5.70313,-5.74219 12.03125,-5.74219 7.38281,0 10.19531,6.17188 1.875,4.14062 1.875,12.38281 l 0,2.77344 q -0.0391,1.79687 -0.0391,2.53906 0,3.04688 0.82031,7.85156 0.85938,4.80469 0.85938,7.8125 0,2.1875 -1.5625,3.63282 -1.5625,1.44531 -3.86719,1.44531 z"
         id="path4163"
         inkscape:connector-curvature="0" />
      <path
         d="m 283.01339,276.67514 q -1.64063,9.17969 -1.95313,19.375 -0.39062,12.61719 -4.21875,18.32031 -5.11718,7.61719 -18.125,7.61719 -15.19531,0 -15.19531,-6.01562 0,-2.14844 1.36719,-3.47657 1.36719,-1.32812 3.59375,-1.32812 1.75781,0 5.03906,0.66406 3.28125,0.66406 5.82031,0.66406 5.82032,0 8.59375,-3.55468 2.65625,-3.47657 3.125,-11.05469 -1.99218,2.03125 -4.49218,3.04687 -2.5,1.01563 -5.46875,1.01563 -7.77344,0 -12.65625,-5.03906 -4.84375,-5.07813 -4.84375,-12.96875 0,-10.625 6.48437,-17.1875 6.71875,-6.79688 18.16406,-6.79688 3.67188,0 6.32813,0.89844 2.65625,0.89844 4.29687,2.73437 4.96094,0.58594 4.96094,5.85938 0,2.61719 -0.82031,7.22656 z m -15.15625,-7.8125 q -6.60156,0 -10.27344,4.33594 -3.28125,3.94531 -3.28125,10.23437 0,4.64844 1.75781,6.99219 1.75782,2.34375 5.27344,2.34375 3.20313,0 6.44531,-3.71094 3.04688,-3.51562 3.47657,-6.95312 0.74218,-3.75 1.71875,-11.67969 -1.32813,-0.78125 -2.61719,-1.17187 -1.28906,-0.39063 -2.5,-0.39063 z"
         id="path4165"
         inkscape:connector-curvature="0" />
      <path
         d="m 322.03683,271.79233 q -0.35157,5.97656 -5.42969,5.97656 -4.92188,0 -4.92188,-5.07812 l -0.19531,-3.94532 q -8.78906,1.40625 -12.57812,9.02344 l 0.0391,19.64844 q 0,2.22656 -1.52344,3.67187 -1.52344,1.48438 -3.86719,1.48438 -2.42187,0 -3.75,-1.5625 -1.25,-1.40625 -1.25,-3.59375 l 0,-25.58594 q 0,-1.21094 0.0781,-3.59375 0.0781,-2.42187 0.0781,-3.63281 0,-2.1875 1.28907,-3.63281 1.32812,-1.48438 3.75,-1.48438 4.33593,0 5.15625,4.45313 6.91406,-5.15625 15.35156,-5.15625 7.8125,0 7.8125,10.39062 0,1.99219 -0.0391,2.61719 z"
         id="path4167"
         inkscape:connector-curvature="0" />
      <path
         d="m 361.45089,302.53452 q -1.79688,0 -5.70313,-3.90625 -3.59375,1.71875 -6.32812,2.57812 -2.73438,0.89844 -4.64844,0.89844 -9.41406,0 -14.14062,-5.03906 -4.6875,-5.03907 -4.6875,-15.07813 0,-9.41406 6.95312,-16.09375 6.95313,-6.71875 16.64063,-6.71875 3.71093,0 8.59375,2.10938 5.89843,2.53906 5.89843,5.89843 0,1.40625 -0.89843,2.46094 -0.39063,1.5625 -0.625,3.94531 -0.19532,2.34375 -0.19532,5.50782 0,7.46093 1.05469,10.74218 0.11719,0.35157 1.79688,4.0625 1.52343,3.35938 1.52343,3.82813 0,2.07031 -1.60156,3.4375 -1.5625,1.36719 -3.63281,1.36719 z m -9.6875,-26.79688 q 0,-1.25 0.15625,-2.85156 0.19531,-1.64063 0.54687,-3.63281 -0.78125,-0.39063 -1.40625,-0.54688 -0.58593,-0.19531 -1.01562,-0.19531 -5.3125,0 -9.29688,4.17969 -3.98437,4.14062 -3.98437,9.60937 0,5.23438 1.875,7.89063 1.875,2.61718 5.625,2.61718 2.42187,0 4.57031,-0.78125 2.1875,-0.82031 4.10156,-2.38281 -1.17187,-9.29687 -1.17187,-13.90625 z"
         id="path4169"
         inkscape:connector-curvature="0" />
      <path
         d="m 399.84933,268.51108 q -0.82032,0 -1.95313,-0.0391 -1.09375,-0.0781 -1.91406,-0.0781 -1.60156,0 -3.71094,0.3125 0.70313,15.78125 0.70313,20.625 0,0.50781 0.0391,1.91406 0.0391,1.36719 0.0391,2.22657 0,8.98437 -5.66406,8.98437 -2.14844,0 -3.71094,-1.32812 -1.71875,-1.40625 -1.71875,-3.51563 0,-1.40625 0.11719,-4.21875 0.11719,-2.8125 0.11719,-4.21875 0,-4.72656 -0.70313,-20.23437 -2.42187,-0.11719 -7.34375,-0.625 -4.88281,-0.54688 -4.88281,-5.07813 0,-2.1875 1.48437,-3.71094 1.48438,-1.52343 3.82813,-1.52343 1.44531,0 6.64062,0.46875 -0.0391,-1.25 -0.19531,-4.14063 -0.15625,-2.5 -0.15625,-3.86719 0,-2.1875 1.60156,-3.63281 1.60157,-1.44531 3.86719,-1.44531 5.78125,0 5.78125,9.72656 l -0.0781,3.20313 q 2.42187,-0.35157 3.94531,-0.35157 4.49219,0 6.13281,0.58594 3.125,1.09375 3.125,4.76563 0,2.22656 -1.52344,3.71093 -1.52343,1.48438 -3.86718,1.48438 z"
         id="path4171"
         inkscape:connector-curvature="0" />
      <path
         d="m 437.42745,271.36264 q -3.86719,0 -4.64844,-3.24219 -1.5625,-0.27343 -3.20312,-0.27343 -9.41406,0 -9.41406,2.57812 0,1.52344 5.66406,4.10156 7.73437,3.55469 10.46875,5.54688 5.66406,4.10156 5.66406,9.25781 0,6.71875 -6.25,10.19531 -5.03906,2.77344 -12.38281,2.77344 -5.19531,0 -9.49219,-1.60156 -5.85937,-2.1875 -5.85937,-6.44531 0,-3.90625 4.64843,-3.90625 1.79688,0 5.19532,1.13281 3.39843,1.13281 5.23437,1.13281 7.92969,0 7.96875,-3.20312 0,-1.99219 -5.50781,-4.41407 -8.04688,-3.55468 -10.3125,-5.11718 -5.50781,-3.86719 -5.50781,-9.41407 0,-7.85156 8.32031,-10.58593 4.88281,-1.60157 14.84375,-1.60157 3.90625,0 5.78125,1.01563 2.57812,1.36719 2.57812,5.03906 0,7.03125 -3.78906,7.03125 z"
         id="path4173"
         inkscape:connector-curvature="0" />
      <path
         d="m 454.30245,288.35483 q -2.1875,0 -3.63281,-1.36719 -1.40625,-1.36719 -1.40625,-3.4375 0,-1.52344 -0.11719,-4.53125 -0.0781,-3.04687 -0.0781,-4.57031 0,-5.39063 0.0781,-16.17188 0.11719,-10.78125 0.11719,-16.17187 0,-2.07031 1.44531,-3.4375 1.44531,-1.40625 3.59375,-1.40625 2.14844,0 3.59375,1.40625 1.44531,1.36719 1.44531,3.4375 l 0,41.44531 q 0,2.07031 -1.44531,3.4375 -1.40625,1.36719 -3.59375,1.36719 z m -0.11719,14.17969 q -2.34375,0 -4.375,-2.5 -1.83593,-2.30469 -1.83593,-4.29688 0,-2.03125 1.60156,-3.39844 1.60156,-1.36718 3.63281,-1.36718 2.34375,0 4.33594,2.5 1.83594,2.30468 1.83594,4.25781 0,1.99219 -1.60157,3.39844 -1.5625,1.40625 -3.59375,1.40625 z"
         id="path4175"
         inkscape:connector-curvature="0" />
    </g>
  </g>
</svg>
