<?xml version="1.0" encoding="UTF-8" standalone="no"?>
<!-- Created with Inkscape (http://www.inkscape.org/) -->

<svg
   xmlns:dc="http://purl.org/dc/elements/1.1/"
   xmlns:cc="http://creativecommons.org/ns#"
   xmlns:rdf="http://www.w3.org/1999/02/22-rdf-syntax-ns#"
   xmlns:svg="http://www.w3.org/2000/svg"
   xmlns="http://www.w3.org/2000/svg"
   xmlns:sodipodi="http://sodipodi.sourceforge.net/DTD/sodipodi-0.dtd"
   xmlns:inkscape="http://www.inkscape.org/namespaces/inkscape"
   width="210mm"
   height="297mm"
   viewBox="0 0 744.09448819 1052.3622047"
   id="svg2"
   version="1.1"
   inkscape:version="0.91 r13725"
   sodipodi:docname="hud.svg">
  <defs
     id="defs4" />
  <sodipodi:namedview
     id="base"
     pagecolor="#ffffff"
     bordercolor="#666666"
     borderopacity="1.0"
     inkscape:pageopacity="0.0"
     inkscape:pageshadow="2"
     inkscape:zoom="0.90509668"
     inkscape:cx="495.50369"
     inkscape:cy="686.94886"
     inkscape:document-units="px"
     inkscape:current-layer="layer1"
     showgrid="false"
     inkscape:snap-bbox="false"
     inkscape:bbox-paths="false"
     inkscape:snap-global="false"
     inkscape:bbox-nodes="false"
     inkscape:snap-bbox-edge-midpoints="false"
     inkscape:snap-bbox-midpoints="true"
     inkscape:object-paths="false"
     inkscape:object-nodes="true"
     inkscape:snap-smooth-nodes="true"
     inkscape:window-width="1680"
     inkscape:window-height="988"
     inkscape:window-x="1272"
     inkscape:window-y="-8"
     inkscape:window-maximized="1" />
  <metadata
     id="metadata7">
    <rdf:RDF>
      <cc:Work
         rdf:about="">
        <dc:format>image/svg+xml</dc:format>
        <dc:type
           rdf:resource="http://purl.org/dc/dcmitype/StillImage" />
      </cc:Work>
    </rdf:RDF>
  </metadata>
  <g
     inkscape:label="Layer 1"
     inkscape:groupmode="layer"
     id="layer1">
    <g
       id="g4148"
       transform="translate(-25.253814,-143.44166)"
       inkscape:export-filename="C:\Users\Bart\Desktop\ld32\assets\graphics\bar_outline.png"
       inkscape:export-xdpi="53.015507"
       inkscape:export-ydpi="53.015507">
      <circle
         r="61.114227"
         cy="230.6031"
         cx="114.14724"
         id="path4142"
         style="fill:#ff7f2a;stroke:none" />
      <circle
         style="fill:#d45500;stroke:none"
         id="circle4144"
         cx="114.14724"
         cy="230.6031"
         r="46.972092" />
    </g>
    <circle
       style="fill:#88aa00;stroke:none"
       id="circle4146"
       cx="88.893425"
       cy="87.161446"
       r="39.648483"
       inkscape:export-filename="C:\Users\Bart\Desktop\ld32\assets\graphics\bar_inner.png"
       inkscape:export-xdpi="53.343761"
       inkscape:export-ydpi="53.343761" />
    <g
       id="g4215"
       transform="matrix(0.8818867,0,0,0.8818867,-150.25374,-47.143637)"
       inkscape:export-filename="C:\Users\Bart\Desktop\ld32\assets\graphics\heart.png"
       inkscape:export-xdpi="53.4151"
       inkscape:export-ydpi="53.4151">
      <g
         style="fill:#ececec"
         id="g4191"
         transform="matrix(0.81869076,0,0,0.85278971,61.163885,70.145569)">
        <circle
           r="30.46875"
           cy="91.306915"
           cx="241.28847"
           id="circle4193"
           style="fill:#ececec;stroke:none" />
        <circle
           style="fill:#ececec;stroke:none"
           id="circle4195"
           cx="271.75723"
           cy="91.306915"
           r="30.46875" />
        <path
           sodipodi:nodetypes="zzzz"
           inkscape:connector-curvature="0"
           id="path4197"
           d="m 210.81972,91.306919 c -0.0992,-30.134162 91.44465,-30.569195 91.40625,0 -0.0384,30.569191 -41.28898,45.871391 -45.3125,45.703121 -4.02352,-0.16827 -45.99458,-15.56896 -46.09375,-45.703121 z"
           style="fill:#ececec;stroke:none" />
      </g>
      <g
         transform="matrix(0.66759972,0,0,0.69540564,99.922183,86.23786)"
         id="g4178">
        <circle
           style="fill:#c83737;stroke:none"
           id="path4168"
           cx="241.28847"
           cy="91.306915"
           r="30.46875" />
        <circle
           r="30.46875"
           cy="91.306915"
           cx="271.75723"
           id="circle4170"
           style="fill:#c83737;stroke:none" />
        <path
           style="fill:#c83737;stroke:none"
           d="m 210.81972,91.306919 c -0.0992,-30.134162 91.44465,-30.569195 91.40625,0 -0.0384,30.569191 -41.28898,45.871391 -45.3125,45.703121 -4.02352,-0.16827 -45.99458,-15.56896 -46.09375,-45.703121 z"
           id="rect4175"
           inkscape:connector-curvature="0"
           sodipodi:nodetypes="zzzz" />
      </g>
    </g>
    <flowRoot
       xml:space="preserve"
       id="flowRoot4146"
       style="fill:black;stroke:none;stroke-opacity:1;stroke-width:1px;stroke-linejoin:miter;stroke-linecap:butt;fill-opacity:1;font-family:Pericles;font-style:normal;font-weight:normal;font-size:90px;line-height:125%;letter-spacing:0px;word-spacing:0px;-inkscape-font-specification:Pericles;font-stretch:normal;font-variant:normal;"><flowRegion
         id="flowRegion4148"><rect
           id="rect4150"
           width="525.91064"
           height="216.55145"
           x="139.21165"
           y="246.92339"
           style="-inkscape-font-specification:Pericles;font-family:Pericles;font-weight:normal;font-style:normal;font-stretch:normal;font-variant:normal;font-size:90px;" /></flowRegion><flowPara
         id="flowPara4152"></flowPara></flowRoot>    <g
       id="g4340"
       transform="translate(82.864076,-211.02718)">
      <g
         transform="translate(4.9718446,6.0766989)"
         style="font-style:normal;font-variant:normal;font-weight:bold;font-stretch:semi-condensed;font-size:80px;line-height:125%;font-family:Andy;-inkscape-font-specification:'Andy Bold Semi-Condensed';letter-spacing:0px;word-spacing:0px;fill:#241c1c;fill-opacity:1;stroke:#241c1c;stroke-width:1px;stroke-linecap:butt;stroke-linejoin:miter;stroke-opacity:1"
         id="g4278">
        <path
           d="m 157.78715,258.35483 q -3.51563,0 -5.19532,-3.71094 -0.78125,-1.75781 -1.5625,-2.10937 -0.58593,-0.27344 -3.08593,-0.27344 -4.92188,0 -11.36719,7.65625 -9.02344,10.70312 -9.02344,20.03906 0,4.25781 2.85156,7.30469 2.85157,3.04687 6.83594,3.04687 3.86719,0 7.85156,-2.03125 1.40625,-0.74218 5.9375,-3.82812 3.04688,-2.03125 4.60938,-2.03125 2.34375,0 3.98437,1.71875 1.52344,1.60156 1.52344,3.67187 0,2.30469 -2.03125,4.02344 -10.74219,9.0625 -21.875,9.0625 -8.78906,0 -14.84375,-6.40625 -5.78125,-6.17187 -5.78125,-14.53125 0,-13.08594 11.44531,-26.71875 9.72657,-11.5625 19.88282,-11.5625 1.71875,0 3.08593,0.11719 1.40625,0.11719 2.46094,0.35156 1.71875,-1.67969 4.14063,-1.67969 3.98437,0 4.92187,4.57032 0.66406,3.28125 0.66406,7.65625 0,1.95312 -1.13281,3.55468 -1.48437,2.10938 -4.29687,2.10938 z"
           style="font-style:normal;font-variant:normal;font-weight:bold;font-stretch:normal;font-family:'Comic Sans MS';-inkscape-font-specification:'Comic Sans MS Bold';fill:#241c1c;stroke:#241c1c;stroke-width:6;stroke-miterlimit:4;stroke-dasharray:none"
           id="path4280"
           inkscape:connector-curvature="0" />
        <path
           inkscape:connector-curvature="0"
           d="m 178.98995,302.26108 q -7.22656,0 -12.42187,-4.96094 -5.70313,-5.42969 -5.97657,-14.49219 -0.27343,-8.63281 4.72657,-15.39062 5.9375,-7.96875 16.52343,-7.96875 7.8125,0 12.42188,6.25 4.14062,5.625 4.14062,13.94531 0,9.0625 -4.84375,15.46875 -5.42968,7.14844 -14.57031,7.14844 z m 2.34375,-32.5 q -4.80469,-0.0391 -7.57812,4.375 -2.34375,3.71094 -2.34375,8.67187 0,4.6875 2.65625,7.1875 2.10937,1.99219 4.92187,1.99219 3.39844,0 5.89844,-2.30469 2.85156,-2.69531 3.04687,-7.30468 0.50782,-12.57813 -6.60156,-12.61719 z"
           style="font-style:normal;font-variant:normal;font-weight:bold;font-stretch:normal;font-family:'Comic Sans MS';-inkscape-font-specification:'Comic Sans MS Bold';fill:#241c1c;stroke:#241c1c;stroke-width:6;stroke-miterlimit:4;stroke-dasharray:none"
           id="path4282" />
        <path
           d="m 231.5655,302.72983 q -4.80469,0 -5.35156,-4.72656 -0.54688,-4.02344 -1.09375,-8.08594 -0.58594,-4.29688 -0.58594,-8.08594 0,-1.01562 0.11719,-3.47656 0.15625,-2.46094 0.15625,-3.47656 0,-0.27344 0.0781,-1.36719 0.0781,-1.13281 0.0781,-1.83594 0,-3.24219 -1.67969,-3.24219 -3.59375,0 -7.07031,4.21875 -3.4375,4.17969 -5.39063,10.625 -0.0781,1.28907 -0.35156,3.4375 -0.23437,1.75782 -0.23437,3.4375 0,1.09375 0.23437,3.32032 0.27344,2.1875 0.27344,3.28125 0,2.22656 -1.5625,3.67187 -1.52344,1.48438 -3.86719,1.48438 -2.34375,0 -3.86719,-1.48438 -1.52343,-1.44531 -1.52343,-3.67187 0,-1.09375 -0.23438,-3.28125 -0.23437,-2.22657 -0.23437,-3.32032 0,-3.75 0.54687,-10.42968 0.54688,-6.67969 0.54688,-10.42969 0,-1.17188 -0.15625,-3.47656 -0.11719,-2.34375 -0.11719,-3.47657 0,-2.1875 1.5625,-3.59375 1.60156,-1.44531 3.90625,-1.44531 5.11719,0 5.46875,6.13281 l 0.0391,0.42969 q 5.70313,-5.74219 12.03125,-5.74219 7.38281,0 10.19531,6.17188 1.875,4.14062 1.875,12.38281 l 0,2.77344 q -0.0391,1.79687 -0.0391,2.53906 0,3.04688 0.82031,7.85156 0.85938,4.80469 0.85938,7.8125 0,2.1875 -1.5625,3.63282 -1.5625,1.44531 -3.86719,1.44531 z"
           style="font-style:normal;font-variant:normal;font-weight:bold;font-stretch:normal;font-family:'Comic Sans MS';-inkscape-font-specification:'Comic Sans MS Bold';fill:#241c1c;stroke:#241c1c;stroke-width:6;stroke-miterlimit:4;stroke-dasharray:none"
           id="path4284"
           inkscape:connector-curvature="0" />
        <path
           d="m 276.66048,276.67514 q -1.64063,9.17969 -1.95313,19.375 -0.39062,12.61719 -4.21875,18.32031 -5.11718,7.61719 -18.125,7.61719 -15.19531,0 -15.19531,-6.01562 0,-2.14844 1.36719,-3.47657 1.36719,-1.32812 3.59375,-1.32812 1.75781,0 5.03906,0.66406 3.28125,0.66406 5.82031,0.66406 5.82032,0 8.59375,-3.55468 2.65625,-3.47657 3.125,-11.05469 -1.99218,2.03125 -4.49218,3.04687 -2.5,1.01563 -5.46875,1.01563 -7.77344,0 -12.65625,-5.03906 -4.84375,-5.07813 -4.84375,-12.96875 0,-10.625 6.48437,-17.1875 6.71875,-6.79688 18.16406,-6.79688 3.67188,0 6.32813,0.89844 2.65625,0.89844 4.29687,2.73437 4.96094,0.58594 4.96094,5.85938 0,2.61719 -0.82031,7.22656 z m -15.15625,-7.8125 q -6.60156,0 -10.27344,4.33594 -3.28125,3.94531 -3.28125,10.23437 0,4.64844 1.75781,6.99219 1.75782,2.34375 5.27344,2.34375 3.20313,0 6.44531,-3.71094 3.04688,-3.51562 3.47657,-6.95312 0.74218,-3.75 1.71875,-11.67969 -1.32813,-0.78125 -2.61719,-1.17187 -1.28906,-0.39063 -2.5,-0.39063 z"
           style="font-style:normal;font-variant:normal;font-weight:bold;font-stretch:normal;font-family:'Comic Sans MS';-inkscape-font-specification:'Comic Sans MS Bold';fill:#241c1c;stroke:#241c1c;stroke-width:6;stroke-miterlimit:4;stroke-dasharray:none"
           id="path4286"
           inkscape:connector-curvature="0" />
        <path
           d="m 312.09314,271.79233 q -0.35157,5.97656 -5.42969,5.97656 -4.92188,0 -4.92188,-5.07812 l -0.19531,-3.94532 q -8.78906,1.40625 -12.57812,9.02344 l 0.0391,19.64844 q 0,2.22656 -1.52344,3.67187 -1.52344,1.48438 -3.86719,1.48438 -2.42187,0 -3.75,-1.5625 -1.25,-1.40625 -1.25,-3.59375 l 0,-25.58594 q 0,-1.21094 0.0781,-3.59375 0.0781,-2.42187 0.0781,-3.63281 0,-2.1875 1.28907,-3.63281 1.32812,-1.48438 3.75,-1.48438 4.33593,0 5.15625,4.45313 6.91406,-5.15625 15.35156,-5.15625 7.8125,0 7.8125,10.39062 0,1.99219 -0.0391,2.61719 z"
           style="font-style:normal;font-variant:normal;font-weight:bold;font-stretch:normal;font-family:'Comic Sans MS';-inkscape-font-specification:'Comic Sans MS Bold';fill:#241c1c;stroke:#241c1c;stroke-width:6;stroke-miterlimit:4;stroke-dasharray:none"
           id="path4288"
           inkscape:connector-curvature="0" />
        <path
           d="m 346.53536,302.53452 q -1.79688,0 -5.70313,-3.90625 -3.59375,1.71875 -6.32812,2.57812 -2.73438,0.89844 -4.64844,0.89844 -9.41406,0 -14.14062,-5.03906 -4.6875,-5.03907 -4.6875,-15.07813 0,-9.41406 6.95312,-16.09375 6.95313,-6.71875 16.64063,-6.71875 3.71093,0 8.59375,2.10938 5.89843,2.53906 5.89843,5.89843 0,1.40625 -0.89843,2.46094 -0.39063,1.5625 -0.625,3.94531 -0.19532,2.34375 -0.19532,5.50782 0,7.46093 1.05469,10.74218 0.11719,0.35157 1.79688,4.0625 1.52343,3.35938 1.52343,3.82813 0,2.07031 -1.60156,3.4375 -1.5625,1.36719 -3.63281,1.36719 z m -9.6875,-26.79688 q 0,-1.25 0.15625,-2.85156 0.19531,-1.64063 0.54687,-3.63281 -0.78125,-0.39063 -1.40625,-0.54688 -0.58593,-0.19531 -1.01562,-0.19531 -5.3125,0 -9.29688,4.17969 -3.98437,4.14062 -3.98437,9.60937 0,5.23438 1.875,7.89063 1.875,2.61718 5.625,2.61718 2.42187,0 4.57031,-0.78125 2.1875,-0.82031 4.10156,-2.38281 -1.17187,-9.29687 -1.17187,-13.90625 z"
           style="font-style:normal;font-variant:normal;font-weight:bold;font-stretch:normal;font-family:'Comic Sans MS';-inkscape-font-specification:'Comic Sans MS Bold';fill:#241c1c;stroke:#241c1c;stroke-width:6;stroke-miterlimit:4;stroke-dasharray:none"
           id="path4290"
           inkscape:connector-curvature="0" />
        <path
           d="m 379.13331,268.51108 q -0.82032,0 -1.95313,-0.0391 -1.09375,-0.0781 -1.91406,-0.0781 -1.60156,0 -3.71094,0.3125 0.70313,15.78125 0.70313,20.625 0,0.50781 0.0391,1.91406 0.0391,1.36719 0.0391,2.22657 0,8.98437 -5.66406,8.98437 -2.14844,0 -3.71094,-1.32812 -1.71875,-1.40625 -1.71875,-3.51563 0,-1.40625 0.11719,-4.21875 0.11719,-2.8125 0.11719,-4.21875 0,-4.72656 -0.70313,-20.23437 -2.42187,-0.11719 -7.34375,-0.625 -4.88281,-0.54688 -4.88281,-5.07813 0,-2.1875 1.48437,-3.71094 1.48438,-1.52343 3.82813,-1.52343 1.44531,0 6.64062,0.46875 -0.0391,-1.25 -0.19531,-4.14063 -0.15625,-2.5 -0.15625,-3.86719 0,-2.1875 1.60156,-3.63281 1.60157,-1.44531 3.86719,-1.44531 5.78125,0 5.78125,9.72656 l -0.0781,3.20313 q 2.42187,-0.35157 3.94531,-0.35157 4.49219,0 6.13281,0.58594 3.125,1.09375 3.125,4.76563 0,2.22656 -1.52344,3.71093 -1.52343,1.48438 -3.86718,1.48438 z"
           style="font-style:normal;font-variant:normal;font-weight:bold;font-stretch:normal;font-family:'Comic Sans MS';-inkscape-font-specification:'Comic Sans MS Bold';fill:#241c1c;stroke:#241c1c;stroke-width:6;stroke-miterlimit:4;stroke-dasharray:none"
           id="path4292"
           inkscape:connector-curvature="0" />
        <path
           d="m 411.6462,271.36264 q -3.86719,0 -4.64844,-3.24219 -1.5625,-0.27343 -3.20312,-0.27343 -9.41406,0 -9.41406,2.57812 0,1.52344 5.66406,4.10156 7.73437,3.55469 10.46875,5.54688 5.66406,4.10156 5.66406,9.25781 0,6.71875 -6.25,10.19531 -5.03906,2.77344 -12.38281,2.77344 -5.19531,0 -9.49219,-1.60156 -5.85937,-2.1875 -5.85937,-6.44531 0,-3.90625 4.64843,-3.90625 1.79688,0 5.19532,1.13281 3.39843,1.13281 5.23437,1.13281 7.92969,0 7.96875,-3.20312 0,-1.99219 -5.50781,-4.41407 -8.04688,-3.55468 -10.3125,-5.11718 -5.50781,-3.86719 -5.50781,-9.41407 0,-7.85156 8.32031,-10.58593 4.88281,-1.60157 14.84375,-1.60157 3.90625,0 5.78125,1.01563 2.57812,1.36719 2.57812,5.03906 0,7.03125 -3.78906,7.03125 z"
           style="font-style:normal;font-variant:normal;font-weight:bold;font-stretch:normal;font-family:'Comic Sans MS';-inkscape-font-specification:'Comic Sans MS Bold';fill:#241c1c;stroke:#241c1c;stroke-width:6;stroke-miterlimit:4;stroke-dasharray:none"
           id="path4294"
           inkscape:connector-curvature="0" />
        <path
           d="m 422.07589,288.35483 q -2.1875,0 -3.63281,-1.36719 -1.40625,-1.36719 -1.40625,-3.4375 0,-1.52344 -0.11719,-4.53125 -0.0781,-3.04687 -0.0781,-4.57031 0,-5.39063 0.0781,-16.17188 0.11719,-10.78125 0.11719,-16.17187 0,-2.07031 1.44531,-3.4375 1.44531,-1.40625 3.59375,-1.40625 2.14844,0 3.59375,1.40625 1.44531,1.36719 1.44531,3.4375 l 0,41.44531 q 0,2.07031 -1.44531,3.4375 -1.40625,1.36719 -3.59375,1.36719 z m -0.11719,14.17969 q -2.34375,0 -4.375,-2.5 -1.83593,-2.30469 -1.83593,-4.29688 0,-2.03125 1.60156,-3.39844 1.60156,-1.36718 3.63281,-1.36718 2.34375,0 4.33594,2.5 1.83594,2.30468 1.83594,4.25781 0,1.99219 -1.60157,3.39844 -1.5625,1.40625 -3.59375,1.40625 z"
           style="font-style:normal;font-variant:normal;font-weight:bold;font-stretch:normal;font-family:'Comic Sans MS';-inkscape-font-specification:'Comic Sans MS Bold';fill:#241c1c;stroke:#241c1c;stroke-width:6;stroke-miterlimit:4;stroke-dasharray:none"
           id="path4296"
           inkscape:connector-curvature="0" />
        <path
           inkscape:connector-curvature="0"
           id="path4298"
           style="font-style:normal;font-variant:normal;font-weight:bold;font-stretch:normal;font-size:70px;line-height:125%;font-family:'Comic Sans MS';-inkscape-font-specification:'Comic Sans MS Bold';letter-spacing:0px;word-spacing:0px;fill:#241c1c;fill-opacity:1;stroke:#241c1c;stroke-width:6;stroke-linecap:butt;stroke-linejoin:miter;stroke-miterlimit:4;stroke-dasharray:none;stroke-opacity:1"
           d="m 214.30176,328.15323 q -1.74316,3.58887 -7.00684,15.51758 -4.375,9.98047 -7.45117,15.65429 -5.33204,9.84375 -5.708,10.42481 -2.01661,2.97363 -4.64844,2.97363 -1.87988,0 -3.31543,-1.23047 -1.57227,-1.36718 -1.57227,-3.38379 0,-1.6748 7.14356,-14.08203 -2.63184,-3.79394 -7.55371,-11.51855 -3.69141,-5.67383 -10.83496,-17.12403 -0.6836,-1.16211 -0.6836,-2.42675 0,-1.98243 1.53809,-3.34961 1.43555,-1.26465 3.34961,-1.26465 2.25586,0 4.10156,2.29004 l 2.56348,4.10156 q 0.23926,0.41016 5.8789,9.98047 3.55469,6.11816 6.28907,9.67285 2.59765,-5.22949 7.48535,-15.82519 1.02539,-2.3584 3.07617,-7.14356 1.29883,-3.07617 4.44336,-3.07617 1.87988,0 3.31543,1.23047 1.57226,1.33301 1.57226,3.34961 0,1.16211 -1.98242,5.22949 z" />
        <path
           inkscape:connector-curvature="0"
           id="path4300"
           style="font-style:normal;font-variant:normal;font-weight:bold;font-stretch:normal;font-size:70px;line-height:125%;font-family:'Comic Sans MS';-inkscape-font-specification:'Comic Sans MS Bold';letter-spacing:0px;word-spacing:0px;fill:#241c1c;fill-opacity:1;stroke:#241c1c;stroke-width:6;stroke-linecap:butt;stroke-linejoin:miter;stroke-miterlimit:4;stroke-dasharray:none;stroke-opacity:1"
           d="m 221.76757,372.34756 q -6.32324,0 -10.86914,-4.34082 -4.99023,-4.75097 -5.22949,-12.68066 -0.23926,-7.55371 4.13574,-13.4668 5.19532,-6.97265 14.45801,-6.97265 6.83594,0 10.86914,5.46875 3.62305,4.92187 3.62305,12.20215 0,7.92968 -4.23828,13.53515 -4.75098,6.25488 -12.74903,6.25488 z m 2.05078,-28.4375 q -4.2041,-0.0342 -6.63086,3.82813 -2.05078,3.24707 -2.05078,7.58789 0,4.10156 2.32422,6.28906 1.84571,1.74317 4.30664,1.74317 2.97364,0 5.16114,-2.0166 2.49511,-2.3584 2.66601,-6.39161 0.44434,-11.00586 -5.77637,-11.04004 z" />
        <path
           sodipodi:nodetypes="csscscscsccscscscscccsccscssccc"
           inkscape:connector-curvature="0"
           id="path4302"
           style="font-style:normal;font-variant:normal;font-weight:bold;font-stretch:normal;font-size:70px;line-height:125%;font-family:'Comic Sans MS';-inkscape-font-specification:'Comic Sans MS Bold';letter-spacing:0px;word-spacing:0px;fill:#241c1c;fill-opacity:1;stroke:#241c1c;stroke-width:6;stroke-linecap:butt;stroke-linejoin:miter;stroke-miterlimit:4;stroke-dasharray:none;stroke-opacity:1"
           d="m 269.32616,350.5751 c 0,1.52669 0.0114,3.82813 0.0342,6.9043 0.0228,3.07617 0.0342,5.37761 0.0342,6.9043 0,0.47851 0.0342,1.19629 0.10254,2.15332 0.0912,0.93425 0.13672,1.64063 0.13672,2.11914 0,1.27604 -0.46712,2.32422 -1.40136,3.14453 -0.91146,0.8431 -2.0394,1.26465 -3.38379,1.26465 -1.89127,0 -3.26985,-0.85449 -4.13574,-2.56348 -2.91667,1.07097 -5.93587,1.60645 -9.05762,1.60645 -3.23567,0 -5.95865,-0.68359 -8.16894,-2.05078 -2.48373,-1.57227 -3.96485,-3.86231 -4.44336,-6.87012 -0.88867,-5.69661 -1.33301,-10.78939 -1.33301,-15.27832 0,-2.96224 0.3418,-6.34603 1.02539,-10.15137 0.45573,-2.57487 1.99382,-3.8623 4.61426,-3.8623 1.32161,0 2.44954,0.42155 3.38379,1.26464 0.93425,0.82031 1.40137,1.86849 1.40137,3.14454 0,1.0026 -0.17091,2.57486 -0.5127,4.71679 -0.31901,2.14193 -0.47852,3.77116 -0.47852,4.8877 0,3.21289 0.10253,6.02701 0.30762,8.44238 0.22786,2.39258 0.55826,4.375 0.99121,5.94727 0.56966,0.25065 1.11654,0.44433 1.64063,0.58105 0.54687,0.13672 1.07096,0.20508 1.57225,0.20508 2.5293,0 5.30926,-0.36458 8.33985,-1.09375 0,-1.75456 -0.0114,-3.74838 -0.0342,-5.98145 -0.0456,-2.66601 -0.0684,-4.58007 -0.0684,-5.74218 0,-4.67123 0.21647,-8.70443 0.6494,-12.09961 0.3418,-2.71159 1.89128,-4.06739 4.64844,-4.06739 1.3444,0 2.49512,0.42155 3.45216,1.26465 0.95702,0.8431 1.40136,1.90267 1.33301,3.17871 -0.43296,8.68164 -0.64943,11.54297 -0.64943,11.54297 z" />
        <path
           inkscape:connector-curvature="0"
           id="path4304"
           style="font-style:normal;font-variant:normal;font-weight:bold;font-stretch:normal;font-size:70px;line-height:125%;font-family:'Comic Sans MS';-inkscape-font-specification:'Comic Sans MS Bold';letter-spacing:0px;word-spacing:0px;fill:#241c1c;fill-opacity:1;stroke:#241c1c;stroke-width:6;stroke-linecap:butt;stroke-linejoin:miter;stroke-miterlimit:4;stroke-dasharray:none;stroke-opacity:1"
           d="m 325.61883,340.21866 q -3.58887,13.39844 -7.21193,24.33594 -1.02539,3.07617 -3.34961,6.32324 -1.64062,2.25586 -4.375,2.22168 -4.30664,-0.0684 -6.76758,-8.30567 -0.92284,-3.14453 -2.1875,-11.72363 -0.71776,1.50391 -0.88867,2.0166 -1.77733,4.23828 -5.19531,13.15918 -0.5127,1.43555 -1.53809,2.29004 -1.43554,2.29004 -4.27246,2.39258 -1.60644,0.0684 -3.38379,-2.87109 -1.87988,-2.97364 -3.04199,-7.65625 -1.05957,-4.23829 -3.28125,-18.45704 -0.4785,-3.07617 -0.4785,-4.81933 0,-1.87988 1.40136,-3.11035 1.43554,-1.26465 3.41797,-1.26465 3.69141,0 4.5459,3.65723 0.44434,1.91406 0.75195,4.71679 0.41016,4.03321 0.5127,4.75098 0.44433,2.66601 1.36719,8.71582 2.52929,-6.93848 5.81054,-17.26074 1.40137,-4.44336 5.26368,-4.44336 3.79394,0 4.99023,4.95605 0.85449,3.48633 1.81152,9.05762 1.40137,8.10059 1.70899,9.63867 0.30761,-1.05957 5.36621,-20.78125 0.75195,-2.93945 4.27246,-2.93945 1.94824,0 3.41797,1.26465 1.5039,1.26464 1.5039,3.14453 0,0.34179 -0.17089,0.99121 z" />
        <path
           inkscape:connector-curvature="0"
           id="path4306"
           style="font-style:normal;font-variant:normal;font-weight:bold;font-stretch:normal;font-size:70px;line-height:125%;font-family:'Comic Sans MS';-inkscape-font-specification:'Comic Sans MS Bold';letter-spacing:0px;word-spacing:0px;fill:#241c1c;fill-opacity:1;stroke:#241c1c;stroke-width:6;stroke-linecap:butt;stroke-linejoin:miter;stroke-miterlimit:4;stroke-dasharray:none;stroke-opacity:1"
           d="m 331.74705,329.24698 q -2.1875,0 -3.79395,-1.46973 -1.60645,-1.46972 -1.60645,-3.58886 0,-2.11915 1.60645,-3.58887 1.60645,-1.46973 3.79395,-1.46973 2.1875,0 3.75975,1.46973 1.60645,1.46972 1.60645,3.58887 0,2.11914 -1.60645,3.58886 -1.57226,1.46973 -3.75976,1.46973 z m 2.90526,25.05371 q 0,1.94824 0.10254,6.25488 0.13672,4.30664 0.13672,6.25489 0,1.98242 -1.33301,3.28125 -1.33301,1.26464 -3.38379,1.26464 -2.05077,0 -3.38378,-1.26464 -1.33301,-1.29883 -1.33301,-3.28125 0,-1.94825 -0.13671,-6.25489 -0.10254,-4.30664 -0.10254,-6.25488 0,-3.04199 0.34179,-7.62207 0.3418,-4.58008 0.3418,-7.62207 0,-1.98242 1.33301,-3.24707 1.33301,-1.29883 3.38379,-1.29883 2.05077,0 3.38378,1.29883 1.33301,1.26465 1.33301,3.24707 0,3.04199 -0.34179,7.62207 -0.3418,4.58008 -0.3418,7.62207 z" />
        <path
           inkscape:connector-curvature="0"
           id="path4308"
           style="font-style:normal;font-variant:normal;font-weight:bold;font-stretch:normal;font-size:70px;line-height:125%;font-family:'Comic Sans MS';-inkscape-font-specification:'Comic Sans MS Bold';letter-spacing:0px;word-spacing:0px;fill:#241c1c;fill-opacity:1;stroke:#241c1c;stroke-width:6;stroke-linecap:butt;stroke-linejoin:miter;stroke-miterlimit:4;stroke-dasharray:none;stroke-opacity:1"
           d="m 363.94605,372.75772 q -4.2041,0 -4.68262,-4.13574 -0.47851,-3.52051 -0.95703,-7.0752 -0.51269,-3.75976 -0.51269,-7.07519 0,-0.88867 0.10254,-3.04199 0.13672,-2.15332 0.13672,-3.042 0,-0.23925 0.0684,-1.19629 0.0684,-0.99121 0.0684,-1.60644 0,-2.83691 -1.46972,-2.83691 -3.14453,0 -6.18653,3.6914 -3.00781,3.65723 -4.71679,9.29688 -0.0684,1.12793 -0.30762,3.00781 -0.20508,1.53809 -0.20508,3.00781 0,0.95703 0.20508,2.90528 0.23926,1.91406 0.23926,2.87109 0,1.94824 -1.36719,3.21289 -1.33301,1.29883 -3.38379,1.29883 -2.05078,0 -3.38379,-1.29883 -1.33301,-1.26465 -1.33301,-3.21289 0,-0.95703 -0.20507,-2.87109 -0.20508,-1.94825 -0.20508,-2.90528 0,-3.28125 0.47851,-9.12597 0.47852,-5.84473 0.47852,-9.12598 0,-1.02539 -0.13672,-3.04199 -0.10254,-2.05078 -0.10254,-3.042 0,-1.91406 1.36719,-3.14453 1.40137,-1.26465 3.41797,-1.26465 4.47754,0 4.78515,5.36622 l 0.0342,0.37597 q 4.99024,-5.02441 10.52735,-5.02441 6.45996,0 8.9209,5.40039 1.64062,3.62305 1.64062,10.83496 l 0,2.42676 q -0.0342,1.57226 -0.0342,2.22168 0,2.66601 0.71778,6.87011 0.75195,4.20411 0.75195,6.83594 0,1.91406 -1.36719,3.17871 -1.36719,1.26465 -3.38379,1.26465 z" />
        <path
           inkscape:connector-curvature="0"
           id="path4310"
           style="font-style:normal;font-variant:normal;font-weight:bold;font-stretch:normal;font-family:'Comic Sans MS';-inkscape-font-specification:'Comic Sans MS Bold';fill:#241c1c;stroke:#241c1c;stroke-width:6;stroke-miterlimit:4;stroke-dasharray:none"
           d="m 157.78715,258.35483 q -3.51563,0 -5.19532,-3.71094 -0.78125,-1.75781 -1.5625,-2.10937 -0.58593,-0.27344 -3.08593,-0.27344 -4.92188,0 -11.36719,7.65625 -9.02344,10.70312 -9.02344,20.03906 0,4.25781 2.85156,7.30469 2.85157,3.04687 6.83594,3.04687 3.86719,0 7.85156,-2.03125 1.40625,-0.74218 5.9375,-3.82812 3.04688,-2.03125 4.60938,-2.03125 2.34375,0 3.98437,1.71875 1.52344,1.60156 1.52344,3.67187 0,2.30469 -2.03125,4.02344 -10.74219,9.0625 -21.875,9.0625 -8.78906,0 -14.84375,-6.40625 -5.78125,-6.17187 -5.78125,-14.53125 0,-13.08594 11.44531,-26.71875 9.72657,-11.5625 19.88282,-11.5625 1.71875,0 3.08593,0.11719 1.40625,0.11719 2.46094,0.35156 1.71875,-1.67969 4.14063,-1.67969 3.98437,0 4.92187,4.57032 0.66406,3.28125 0.66406,7.65625 0,1.95312 -1.13281,3.55468 -1.48437,2.10938 -4.29687,2.10938 z" />
        <path
           inkscape:connector-curvature="0"
           id="path4312"
           style="font-style:normal;font-variant:normal;font-weight:bold;font-stretch:normal;font-family:'Comic Sans MS';-inkscape-font-specification:'Comic Sans MS Bold';fill:#241c1c;stroke:#241c1c;stroke-width:6;stroke-miterlimit:4;stroke-dasharray:none"
           d="m 178.98995,302.26108 q -7.22656,0 -12.42187,-4.96094 -5.70313,-5.42969 -5.97657,-14.49219 -0.27343,-8.63281 4.72657,-15.39062 5.9375,-7.96875 16.52343,-7.96875 7.8125,0 12.42188,6.25 4.14062,5.625 4.14062,13.94531 0,9.0625 -4.84375,15.46875 -5.42968,7.14844 -14.57031,7.14844 z m 2.34375,-32.5 q -4.80469,-0.0391 -7.57812,4.375 -2.34375,3.71094 -2.34375,8.67187 0,4.6875 2.65625,7.1875 2.10937,1.99219 4.92187,1.99219 3.39844,0 5.89844,-2.30469 2.85156,-2.69531 3.04687,-7.30468 0.50782,-12.57813 -6.60156,-12.61719 z" />
        <path
           inkscape:connector-curvature="0"
           id="path4314"
           style="font-style:normal;font-variant:normal;font-weight:bold;font-stretch:normal;font-family:'Comic Sans MS';-inkscape-font-specification:'Comic Sans MS Bold';fill:#241c1c;stroke:#241c1c;stroke-width:6;stroke-miterlimit:4;stroke-dasharray:none"
           d="m 231.5655,302.72983 q -4.80469,0 -5.35156,-4.72656 -0.54688,-4.02344 -1.09375,-8.08594 -0.58594,-4.29688 -0.58594,-8.08594 0,-1.01562 0.11719,-3.47656 0.15625,-2.46094 0.15625,-3.47656 0,-0.27344 0.0781,-1.36719 0.0781,-1.13281 0.0781,-1.83594 0,-3.24219 -1.67969,-3.24219 -3.59375,0 -7.07031,4.21875 -3.4375,4.17969 -5.39063,10.625 -0.0781,1.28907 -0.35156,3.4375 -0.23437,1.75782 -0.23437,3.4375 0,1.09375 0.23437,3.32032 0.27344,2.1875 0.27344,3.28125 0,2.22656 -1.5625,3.67187 -1.52344,1.48438 -3.86719,1.48438 -2.34375,0 -3.86719,-1.48438 -1.52343,-1.44531 -1.52343,-3.67187 0,-1.09375 -0.23438,-3.28125 -0.23437,-2.22657 -0.23437,-3.32032 0,-3.75 0.54687,-10.42968 0.54688,-6.67969 0.54688,-10.42969 0,-1.17188 -0.15625,-3.47656 -0.11719,-2.34375 -0.11719,-3.47657 0,-2.1875 1.5625,-3.59375 1.60156,-1.44531 3.90625,-1.44531 5.11719,0 5.46875,6.13281 l 0.0391,0.42969 q 5.70313,-5.74219 12.03125,-5.74219 7.38281,0 10.19531,6.17188 1.875,4.14062 1.875,12.38281 l 0,2.77344 q -0.0391,1.79687 -0.0391,2.53906 0,3.04688 0.82031,7.85156 0.85938,4.80469 0.85938,7.8125 0,2.1875 -1.5625,3.63282 -1.5625,1.44531 -3.86719,1.44531 z" />
        <path
           inkscape:connector-curvature="0"
           id="path4316"
           style="font-style:normal;font-variant:normal;font-weight:bold;font-stretch:normal;font-family:'Comic Sans MS';-inkscape-font-specification:'Comic Sans MS Bold';fill:#241c1c;stroke:#241c1c;stroke-width:6;stroke-miterlimit:4;stroke-dasharray:none"
           d="m 276.66048,276.67514 q -1.64063,9.17969 -1.95313,19.375 -0.39062,12.61719 -4.21875,18.32031 -5.11718,7.61719 -18.125,7.61719 -15.19531,0 -15.19531,-6.01562 0,-2.14844 1.36719,-3.47657 1.36719,-1.32812 3.59375,-1.32812 1.75781,0 5.03906,0.66406 3.28125,0.66406 5.82031,0.66406 5.82032,0 8.59375,-3.55468 2.65625,-3.47657 3.125,-11.05469 -1.99218,2.03125 -4.49218,3.04687 -2.5,1.01563 -5.46875,1.01563 -7.77344,0 -12.65625,-5.03906 -4.84375,-5.07813 -4.84375,-12.96875 0,-10.625 6.48437,-17.1875 6.71875,-6.79688 18.16406,-6.79688 3.67188,0 6.32813,0.89844 2.65625,0.89844 4.29687,2.73437 4.96094,0.58594 4.96094,5.85938 0,2.61719 -0.82031,7.22656 z m -15.15625,-7.8125 q -6.60156,0 -10.27344,4.33594 -3.28125,3.94531 -3.28125,10.23437 0,4.64844 1.75781,6.99219 1.75782,2.34375 5.27344,2.34375 3.20313,0 6.44531,-3.71094 3.04688,-3.51562 3.47657,-6.95312 0.74218,-3.75 1.71875,-11.67969 -1.32813,-0.78125 -2.61719,-1.17187 -1.28906,-0.39063 -2.5,-0.39063 z" />
        <path
           inkscape:connector-curvature="0"
           id="path4318"
           style="font-style:normal;font-variant:normal;font-weight:bold;font-stretch:normal;font-family:'Comic Sans MS';-inkscape-font-specification:'Comic Sans MS Bold';fill:#241c1c;stroke:#241c1c;stroke-width:6;stroke-miterlimit:4;stroke-dasharray:none"
           d="m 312.09314,271.79233 q -0.35157,5.97656 -5.42969,5.97656 -4.92188,0 -4.92188,-5.07812 l -0.19531,-3.94532 q -8.78906,1.40625 -12.57812,9.02344 l 0.0391,19.64844 q 0,2.22656 -1.52344,3.67187 -1.52344,1.48438 -3.86719,1.48438 -2.42187,0 -3.75,-1.5625 -1.25,-1.40625 -1.25,-3.59375 l 0,-25.58594 q 0,-1.21094 0.0781,-3.59375 0.0781,-2.42187 0.0781,-3.63281 0,-2.1875 1.28907,-3.63281 1.32812,-1.48438 3.75,-1.48438 4.33593,0 5.15625,4.45313 6.91406,-5.15625 15.35156,-5.15625 7.8125,0 7.8125,10.39062 0,1.99219 -0.0391,2.61719 z" />
        <path
           inkscape:connector-curvature="0"
           id="path4320"
           style="font-style:normal;font-variant:normal;font-weight:bold;font-stretch:normal;font-family:'Comic Sans MS';-inkscape-font-specification:'Comic Sans MS Bold';fill:#241c1c;stroke:#241c1c;stroke-width:6;stroke-miterlimit:4;stroke-dasharray:none"
           d="m 346.53536,302.53452 q -1.79688,0 -5.70313,-3.90625 -3.59375,1.71875 -6.32812,2.57812 -2.73438,0.89844 -4.64844,0.89844 -9.41406,0 -14.14062,-5.03906 -4.6875,-5.03907 -4.6875,-15.07813 0,-9.41406 6.95312,-16.09375 6.95313,-6.71875 16.64063,-6.71875 3.71093,0 8.59375,2.10938 5.89843,2.53906 5.89843,5.89843 0,1.40625 -0.89843,2.46094 -0.39063,1.5625 -0.625,3.94531 -0.19532,2.34375 -0.19532,5.50782 0,7.46093 1.05469,10.74218 0.11719,0.35157 1.79688,4.0625 1.52343,3.35938 1.52343,3.82813 0,2.07031 -1.60156,3.4375 -1.5625,1.36719 -3.63281,1.36719 z m -9.6875,-26.79688 q 0,-1.25 0.15625,-2.85156 0.19531,-1.64063 0.54687,-3.63281 -0.78125,-0.39063 -1.40625,-0.54688 -0.58593,-0.19531 -1.01562,-0.19531 -5.3125,0 -9.29688,4.17969 -3.98437,4.14062 -3.98437,9.60937 0,5.23438 1.875,7.89063 1.875,2.61718 5.625,2.61718 2.42187,0 4.57031,-0.78125 2.1875,-0.82031 4.10156,-2.38281 -1.17187,-9.29687 -1.17187,-13.90625 z" />
        <path
           inkscape:connector-curvature="0"
           id="path4322"
           style="font-style:normal;font-variant:normal;font-weight:bold;font-stretch:normal;font-family:'Comic Sans MS';-inkscape-font-specification:'Comic Sans MS Bold';fill:#241c1c;stroke:#241c1c;stroke-width:6;stroke-miterlimit:4;stroke-dasharray:none"
           d="m 379.13331,268.51108 q -0.82032,0 -1.95313,-0.0391 -1.09375,-0.0781 -1.91406,-0.0781 -1.60156,0 -3.71094,0.3125 0.70313,15.78125 0.70313,20.625 0,0.50781 0.0391,1.91406 0.0391,1.36719 0.0391,2.22657 0,8.98437 -5.66406,8.98437 -2.14844,0 -3.71094,-1.32812 -1.71875,-1.40625 -1.71875,-3.51563 0,-1.40625 0.11719,-4.21875 0.11719,-2.8125 0.11719,-4.21875 0,-4.72656 -0.70313,-20.23437 -2.42187,-0.11719 -7.34375,-0.625 -4.88281,-0.54688 -4.88281,-5.07813 0,-2.1875 1.48437,-3.71094 1.48438,-1.52343 3.82813,-1.52343 1.44531,0 6.64062,0.46875 -0.0391,-1.25 -0.19531,-4.14063 -0.15625,-2.5 -0.15625,-3.86719 0,-2.1875 1.60156,-3.63281 1.60157,-1.44531 3.86719,-1.44531 5.78125,0 5.78125,9.72656 l -0.0781,3.20313 q 2.42187,-0.35157 3.94531,-0.35157 4.49219,0 6.13281,0.58594 3.125,1.09375 3.125,4.76563 0,2.22656 -1.52344,3.71093 -1.52343,1.48438 -3.86718,1.48438 z" />
        <path
           inkscape:connector-curvature="0"
           id="path4324"
           style="font-style:normal;font-variant:normal;font-weight:bold;font-stretch:normal;font-family:'Comic Sans MS';-inkscape-font-specification:'Comic Sans MS Bold';fill:#241c1c;stroke:#241c1c;stroke-width:6;stroke-miterlimit:4;stroke-dasharray:none"
           d="m 411.6462,271.36264 q -3.86719,0 -4.64844,-3.24219 -1.5625,-0.27343 -3.20312,-0.27343 -9.41406,0 -9.41406,2.57812 0,1.52344 5.66406,4.10156 7.73437,3.55469 10.46875,5.54688 5.66406,4.10156 5.66406,9.25781 0,6.71875 -6.25,10.19531 -5.03906,2.77344 -12.38281,2.77344 -5.19531,0 -9.49219,-1.60156 -5.85937,-2.1875 -5.85937,-6.44531 0,-3.90625 4.64843,-3.90625 1.79688,0 5.19532,1.13281 3.39843,1.13281 5.23437,1.13281 7.92969,0 7.96875,-3.20312 0,-1.99219 -5.50781,-4.41407 -8.04688,-3.55468 -10.3125,-5.11718 -5.50781,-3.86719 -5.50781,-9.41407 0,-7.85156 8.32031,-10.58593 4.88281,-1.60157 14.84375,-1.60157 3.90625,0 5.78125,1.01563 2.57812,1.36719 2.57812,5.03906 0,7.03125 -3.78906,7.03125 z" />
        <path
           inkscape:connector-curvature="0"
           id="path4326"
           style="font-style:normal;font-variant:normal;font-weight:bold;font-stretch:normal;font-family:'Comic Sans MS';-inkscape-font-specification:'Comic Sans MS Bold';fill:#241c1c;stroke:#241c1c;stroke-width:6;stroke-miterlimit:4;stroke-dasharray:none"
           d="m 422.07589,288.35483 q -2.1875,0 -3.63281,-1.36719 -1.40625,-1.36719 -1.40625,-3.4375 0,-1.52344 -0.11719,-4.53125 -0.0781,-3.04687 -0.0781,-4.57031 0,-5.39063 0.0781,-16.17188 0.11719,-10.78125 0.11719,-16.17187 0,-2.07031 1.44531,-3.4375 1.44531,-1.40625 3.59375,-1.40625 2.14844,0 3.59375,1.40625 1.44531,1.36719 1.44531,3.4375 l 0,41.44531 q 0,2.07031 -1.44531,3.4375 -1.40625,1.36719 -3.59375,1.36719 z m -0.11719,14.17969 q -2.34375,0 -4.375,-2.5 -1.83593,-2.30469 -1.83593,-4.29688 0,-2.03125 1.60156,-3.39844 1.60156,-1.36718 3.63281,-1.36718 2.34375,0 4.33594,2.5 1.83594,2.30468 1.83594,4.25781 0,1.99219 -1.60157,3.39844 -1.5625,1.40625 -3.59375,1.40625 z" />
        <path
           d="m 214.30176,328.15323 q -1.74316,3.58887 -7.00684,15.51758 -4.375,9.98047 -7.45117,15.65429 -5.33204,9.84375 -5.708,10.42481 -2.01661,2.97363 -4.64844,2.97363 -1.87988,0 -3.31543,-1.23047 -1.57227,-1.36718 -1.57227,-3.38379 0,-1.6748 7.14356,-14.08203 -2.63184,-3.79394 -7.55371,-11.51855 -3.69141,-5.67383 -10.83496,-17.12403 -0.6836,-1.16211 -0.6836,-2.42675 0,-1.98243 1.53809,-3.34961 1.43555,-1.26465 3.34961,-1.26465 2.25586,0 4.10156,2.29004 l 2.56348,4.10156 q 0.23926,0.41016 5.8789,9.98047 3.55469,6.11816 6.28907,9.67285 2.59765,-5.22949 7.48535,-15.82519 1.02539,-2.3584 3.07617,-7.14356 1.29883,-3.07617 4.44336,-3.07617 1.87988,0 3.31543,1.23047 1.57226,1.33301 1.57226,3.34961 0,1.16211 -1.98242,5.22949 z"
           style="font-style:normal;font-variant:normal;font-weight:bold;font-stretch:normal;font-size:70px;line-height:125%;font-family:'Comic Sans MS';-inkscape-font-specification:'Comic Sans MS Bold';letter-spacing:0px;word-spacing:0px;fill:#241c1c;fill-opacity:1;stroke:#241c1c;stroke-width:6;stroke-linecap:butt;stroke-linejoin:miter;stroke-miterlimit:4;stroke-dasharray:none;stroke-opacity:1"
           id="path4328"
           inkscape:connector-curvature="0" />
        <path
           d="m 221.76757,372.34756 q -6.32324,0 -10.86914,-4.34082 -4.99023,-4.75097 -5.22949,-12.68066 -0.23926,-7.55371 4.13574,-13.4668 5.19532,-6.97265 14.45801,-6.97265 6.83594,0 10.86914,5.46875 3.62305,4.92187 3.62305,12.20215 0,7.92968 -4.23828,13.53515 -4.75098,6.25488 -12.74903,6.25488 z m 2.05078,-28.4375 q -4.2041,-0.0342 -6.63086,3.82813 -2.05078,3.24707 -2.05078,7.58789 0,4.10156 2.32422,6.28906 1.84571,1.74317 4.30664,1.74317 2.97364,0 5.16114,-2.0166 2.49511,-2.3584 2.66601,-6.39161 0.44434,-11.00586 -5.77637,-11.04004 z"
           style="font-style:normal;font-variant:normal;font-weight:bold;font-stretch:normal;font-size:70px;line-height:125%;font-family:'Comic Sans MS';-inkscape-font-specification:'Comic Sans MS Bold';letter-spacing:0px;word-spacing:0px;fill:#241c1c;fill-opacity:1;stroke:#241c1c;stroke-width:6;stroke-linecap:butt;stroke-linejoin:miter;stroke-miterlimit:4;stroke-dasharray:none;stroke-opacity:1"
           id="path4330"
           inkscape:connector-curvature="0" />
        <path
           d="m 269.32616,350.5751 c 0,1.52669 0.0114,3.82813 0.0342,6.9043 0.0228,3.07617 0.0342,5.37761 0.0342,6.9043 0,0.47851 0.0342,1.19629 0.10254,2.15332 0.0912,0.93425 0.13672,1.64063 0.13672,2.11914 0,1.27604 -0.46712,2.32422 -1.40136,3.14453 -0.91146,0.8431 -2.0394,1.26465 -3.38379,1.26465 -1.89127,0 -3.26985,-0.85449 -4.13574,-2.56348 -2.91667,1.07097 -5.93587,1.60645 -9.05762,1.60645 -3.23567,0 -5.95865,-0.68359 -8.16894,-2.05078 -2.48373,-1.57227 -3.96485,-3.86231 -4.44336,-6.87012 -0.88867,-5.69661 -1.33301,-10.78939 -1.33301,-15.27832 0,-2.96224 0.3418,-6.34603 1.02539,-10.15137 0.45573,-2.57487 1.99382,-3.8623 4.61426,-3.8623 1.32161,0 2.44954,0.42155 3.38379,1.26464 0.93425,0.82031 1.40137,1.86849 1.40137,3.14454 0,1.0026 -0.17091,2.57486 -0.5127,4.71679 -0.31901,2.14193 -0.47852,3.77116 -0.47852,4.8877 0,3.21289 0.10253,6.02701 0.30762,8.44238 0.22786,2.39258 0.55826,4.375 0.99121,5.94727 0.56966,0.25065 1.11654,0.44433 1.64063,0.58105 0.54687,0.13672 1.07096,0.20508 1.57225,0.20508 2.5293,0 5.30926,-0.36458 8.33985,-1.09375 0,-1.75456 -0.0114,-3.74838 -0.0342,-5.98145 -0.0456,-2.66601 -0.0684,-4.58007 -0.0684,-5.74218 0,-4.67123 0.21647,-8.70443 0.6494,-12.09961 0.3418,-2.71159 1.89128,-4.06739 4.64844,-4.06739 1.3444,0 2.49512,0.42155 3.45216,1.26465 0.95702,0.8431 1.40136,1.90267 1.33301,3.17871 -0.43296,8.68164 -0.64943,11.54297 -0.64943,11.54297 z"
           style="font-style:normal;font-variant:normal;font-weight:bold;font-stretch:normal;font-size:70px;line-height:125%;font-family:'Comic Sans MS';-inkscape-font-specification:'Comic Sans MS Bold';letter-spacing:0px;word-spacing:0px;fill:#241c1c;fill-opacity:1;stroke:#241c1c;stroke-width:6;stroke-linecap:butt;stroke-linejoin:miter;stroke-miterlimit:4;stroke-dasharray:none;stroke-opacity:1"
           id="path4332"
           inkscape:connector-curvature="0"
           sodipodi:nodetypes="csscscscsccscscscscccsccscssccc" />
        <path
           d="m 325.61883,340.21866 q -3.58887,13.39844 -7.21193,24.33594 -1.02539,3.07617 -3.34961,6.32324 -1.64062,2.25586 -4.375,2.22168 -4.30664,-0.0684 -6.76758,-8.30567 -0.92284,-3.14453 -2.1875,-11.72363 -0.71776,1.50391 -0.88867,2.0166 -1.77733,4.23828 -5.19531,13.15918 -0.5127,1.43555 -1.53809,2.29004 -1.43554,2.29004 -4.27246,2.39258 -1.60644,0.0684 -3.38379,-2.87109 -1.87988,-2.97364 -3.04199,-7.65625 -1.05957,-4.23829 -3.28125,-18.45704 -0.4785,-3.07617 -0.4785,-4.81933 0,-1.87988 1.40136,-3.11035 1.43554,-1.26465 3.41797,-1.26465 3.69141,0 4.5459,3.65723 0.44434,1.91406 0.75195,4.71679 0.41016,4.03321 0.5127,4.75098 0.44433,2.66601 1.36719,8.71582 2.52929,-6.93848 5.81054,-17.26074 1.40137,-4.44336 5.26368,-4.44336 3.79394,0 4.99023,4.95605 0.85449,3.48633 1.81152,9.05762 1.40137,8.10059 1.70899,9.63867 0.30761,-1.05957 5.36621,-20.78125 0.75195,-2.93945 4.27246,-2.93945 1.94824,0 3.41797,1.26465 1.5039,1.26464 1.5039,3.14453 0,0.34179 -0.17089,0.99121 z"
           style="font-style:normal;font-variant:normal;font-weight:bold;font-stretch:normal;font-size:70px;line-height:125%;font-family:'Comic Sans MS';-inkscape-font-specification:'Comic Sans MS Bold';letter-spacing:0px;word-spacing:0px;fill:#241c1c;fill-opacity:1;stroke:#241c1c;stroke-width:6;stroke-linecap:butt;stroke-linejoin:miter;stroke-miterlimit:4;stroke-dasharray:none;stroke-opacity:1"
           id="path4334"
           inkscape:connector-curvature="0" />
        <path
           d="m 331.74705,329.24698 q -2.1875,0 -3.79395,-1.46973 -1.60645,-1.46972 -1.60645,-3.58886 0,-2.11915 1.60645,-3.58887 1.60645,-1.46973 3.79395,-1.46973 2.1875,0 3.75975,1.46973 1.60645,1.46972 1.60645,3.58887 0,2.11914 -1.60645,3.58886 -1.57226,1.46973 -3.75976,1.46973 z m 2.90526,25.05371 q 0,1.94824 0.10254,6.25488 0.13672,4.30664 0.13672,6.25489 0,1.98242 -1.33301,3.28125 -1.33301,1.26464 -3.38379,1.26464 -2.05077,0 -3.38378,-1.26464 -1.33301,-1.29883 -1.33301,-3.28125 0,-1.94825 -0.13671,-6.25489 -0.10254,-4.30664 -0.10254,-6.25488 0,-3.04199 0.34179,-7.62207 0.3418,-4.58008 0.3418,-7.62207 0,-1.98242 1.33301,-3.24707 1.33301,-1.29883 3.38379,-1.29883 2.05077,0 3.38378,1.29883 1.33301,1.26465 1.33301,3.24707 0,3.04199 -0.34179,7.62207 -0.3418,4.58008 -0.3418,7.62207 z"
           style="font-style:normal;font-variant:normal;font-weight:bold;font-stretch:normal;font-size:70px;line-height:125%;font-family:'Comic Sans MS';-inkscape-font-specification:'Comic Sans MS Bold';letter-spacing:0px;word-spacing:0px;fill:#241c1c;fill-opacity:1;stroke:#241c1c;stroke-width:6;stroke-linecap:butt;stroke-linejoin:miter;stroke-miterlimit:4;stroke-dasharray:none;stroke-opacity:1"
           id="path4336"
           inkscape:connector-curvature="0" />
        <path
           d="m 363.94605,372.75772 q -4.2041,0 -4.68262,-4.13574 -0.47851,-3.52051 -0.95703,-7.0752 -0.51269,-3.75976 -0.51269,-7.07519 0,-0.88867 0.10254,-3.04199 0.13672,-2.15332 0.13672,-3.042 0,-0.23925 0.0684,-1.19629 0.0684,-0.99121 0.0684,-1.60644 0,-2.83691 -1.46972,-2.83691 -3.14453,0 -6.18653,3.6914 -3.00781,3.65723 -4.71679,9.29688 -0.0684,1.12793 -0.30762,3.00781 -0.20508,1.53809 -0.20508,3.00781 0,0.95703 0.20508,2.90528 0.23926,1.91406 0.23926,2.87109 0,1.94824 -1.36719,3.21289 -1.33301,1.29883 -3.38379,1.29883 -2.05078,0 -3.38379,-1.29883 -1.33301,-1.26465 -1.33301,-3.21289 0,-0.95703 -0.20507,-2.87109 -0.20508,-1.94825 -0.20508,-2.90528 0,-3.28125 0.47851,-9.12597 0.47852,-5.84473 0.47852,-9.12598 0,-1.02539 -0.13672,-3.04199 -0.10254,-2.05078 -0.10254,-3.042 0,-1.91406 1.36719,-3.14453 1.40137,-1.26465 3.41797,-1.26465 4.47754,0 4.78515,5.36622 l 0.0342,0.37597 q 4.99024,-5.02441 10.52735,-5.02441 6.45996,0 8.9209,5.40039 1.64062,3.62305 1.64062,10.83496 l 0,2.42676 q -0.0342,1.57226 -0.0342,2.22168 0,2.66601 0.71778,6.87011 0.75195,4.20411 0.75195,6.83594 0,1.91406 -1.36719,3.17871 -1.36719,1.26465 -3.38379,1.26465 z"
           style="font-style:normal;font-variant:normal;font-weight:bold;font-stretch:normal;font-size:70px;line-height:125%;font-family:'Comic Sans MS';-inkscape-font-specification:'Comic Sans MS Bold';letter-spacing:0px;word-spacing:0px;fill:#241c1c;fill-opacity:1;stroke:#241c1c;stroke-width:6;stroke-linecap:butt;stroke-linejoin:miter;stroke-miterlimit:4;stroke-dasharray:none;stroke-opacity:1"
           id="path4338"
           inkscape:connector-curvature="0" />
      </g>
      <g
         transform="translate(1.6572815,2.2097087)"
         id="text4154"
         style="font-style:normal;font-variant:normal;font-weight:bold;font-stretch:semi-condensed;font-size:80px;line-height:125%;font-family:Andy;-inkscape-font-specification:'Andy Bold Semi-Condensed';letter-spacing:0px;word-spacing:0px;fill:#000000;fill-opacity:1;stroke:none;stroke-width:1px;stroke-linecap:butt;stroke-linejoin:miter;stroke-opacity:1">
        <path
           inkscape:connector-curvature="0"
           id="path4180"
           style="font-style:normal;font-variant:normal;font-weight:bold;font-stretch:normal;font-family:'Comic Sans MS';-inkscape-font-specification:'Comic Sans MS Bold';fill:#ff6600;stroke:#aa4400;stroke-width:6;stroke-miterlimit:4;stroke-dasharray:none"
           d="m 157.78715,258.35483 q -3.51563,0 -5.19532,-3.71094 -0.78125,-1.75781 -1.5625,-2.10937 -0.58593,-0.27344 -3.08593,-0.27344 -4.92188,0 -11.36719,7.65625 -9.02344,10.70312 -9.02344,20.03906 0,4.25781 2.85156,7.30469 2.85157,3.04687 6.83594,3.04687 3.86719,0 7.85156,-2.03125 1.40625,-0.74218 5.9375,-3.82812 3.04688,-2.03125 4.60938,-2.03125 2.34375,0 3.98437,1.71875 1.52344,1.60156 1.52344,3.67187 0,2.30469 -2.03125,4.02344 -10.74219,9.0625 -21.875,9.0625 -8.78906,0 -14.84375,-6.40625 -5.78125,-6.17187 -5.78125,-14.53125 0,-13.08594 11.44531,-26.71875 9.72657,-11.5625 19.88282,-11.5625 1.71875,0 3.08593,0.11719 1.40625,0.11719 2.46094,0.35156 1.71875,-1.67969 4.14063,-1.67969 3.98437,0 4.92187,4.57032 0.66406,3.28125 0.66406,7.65625 0,1.95312 -1.13281,3.55468 -1.48437,2.10938 -4.29687,2.10938 z" />
        <path
           inkscape:connector-curvature="0"
           id="path4182"
           style="font-style:normal;font-variant:normal;font-weight:bold;font-stretch:normal;font-family:'Comic Sans MS';-inkscape-font-specification:'Comic Sans MS Bold';fill:#ff6600;stroke:#aa4400;stroke-width:6;stroke-miterlimit:4;stroke-dasharray:none"
           d="m 178.98995,302.26108 q -7.22656,0 -12.42187,-4.96094 -5.70313,-5.42969 -5.97657,-14.49219 -0.27343,-8.63281 4.72657,-15.39062 5.9375,-7.96875 16.52343,-7.96875 7.8125,0 12.42188,6.25 4.14062,5.625 4.14062,13.94531 0,9.0625 -4.84375,15.46875 -5.42968,7.14844 -14.57031,7.14844 z m 2.34375,-32.5 q -4.80469,-0.0391 -7.57812,4.375 -2.34375,3.71094 -2.34375,8.67187 0,4.6875 2.65625,7.1875 2.10937,1.99219 4.92187,1.99219 3.39844,0 5.89844,-2.30469 2.85156,-2.69531 3.04687,-7.30468 0.50782,-12.57813 -6.60156,-12.61719 z" />
        <path
           inkscape:connector-curvature="0"
           id="path4184"
           style="font-style:normal;font-variant:normal;font-weight:bold;font-stretch:normal;font-family:'Comic Sans MS';-inkscape-font-specification:'Comic Sans MS Bold';fill:#ff6600;stroke:#aa4400;stroke-width:6;stroke-miterlimit:4;stroke-dasharray:none"
           d="m 231.5655,302.72983 q -4.80469,0 -5.35156,-4.72656 -0.54688,-4.02344 -1.09375,-8.08594 -0.58594,-4.29688 -0.58594,-8.08594 0,-1.01562 0.11719,-3.47656 0.15625,-2.46094 0.15625,-3.47656 0,-0.27344 0.0781,-1.36719 0.0781,-1.13281 0.0781,-1.83594 0,-3.24219 -1.67969,-3.24219 -3.59375,0 -7.07031,4.21875 -3.4375,4.17969 -5.39063,10.625 -0.0781,1.28907 -0.35156,3.4375 -0.23437,1.75782 -0.23437,3.4375 0,1.09375 0.23437,3.32032 0.27344,2.1875 0.27344,3.28125 0,2.22656 -1.5625,3.67187 -1.52344,1.48438 -3.86719,1.48438 -2.34375,0 -3.86719,-1.48438 -1.52343,-1.44531 -1.52343,-3.67187 0,-1.09375 -0.23438,-3.28125 -0.23437,-2.22657 -0.23437,-3.32032 0,-3.75 0.54687,-10.42968 0.54688,-6.67969 0.54688,-10.42969 0,-1.17188 -0.15625,-3.47656 -0.11719,-2.34375 -0.11719,-3.47657 0,-2.1875 1.5625,-3.59375 1.60156,-1.44531 3.90625,-1.44531 5.11719,0 5.46875,6.13281 l 0.0391,0.42969 q 5.70313,-5.74219 12.03125,-5.74219 7.38281,0 10.19531,6.17188 1.875,4.14062 1.875,12.38281 l 0,2.77344 q -0.0391,1.79687 -0.0391,2.53906 0,3.04688 0.82031,7.85156 0.85938,4.80469 0.85938,7.8125 0,2.1875 -1.5625,3.63282 -1.5625,1.44531 -3.86719,1.44531 z" />
        <path
           inkscape:connector-curvature="0"
           id="path4186"
           style="font-style:normal;font-variant:normal;font-weight:bold;font-stretch:normal;font-family:'Comic Sans MS';-inkscape-font-specification:'Comic Sans MS Bold';fill:#ff6600;stroke:#aa4400;stroke-width:6;stroke-miterlimit:4;stroke-dasharray:none"
           d="m 276.66048,276.67514 q -1.64063,9.17969 -1.95313,19.375 -0.39062,12.61719 -4.21875,18.32031 -5.11718,7.61719 -18.125,7.61719 -15.19531,0 -15.19531,-6.01562 0,-2.14844 1.36719,-3.47657 1.36719,-1.32812 3.59375,-1.32812 1.75781,0 5.03906,0.66406 3.28125,0.66406 5.82031,0.66406 5.82032,0 8.59375,-3.55468 2.65625,-3.47657 3.125,-11.05469 -1.99218,2.03125 -4.49218,3.04687 -2.5,1.01563 -5.46875,1.01563 -7.77344,0 -12.65625,-5.03906 -4.84375,-5.07813 -4.84375,-12.96875 0,-10.625 6.48437,-17.1875 6.71875,-6.79688 18.16406,-6.79688 3.67188,0 6.32813,0.89844 2.65625,0.89844 4.29687,2.73437 4.96094,0.58594 4.96094,5.85938 0,2.61719 -0.82031,7.22656 z m -15.15625,-7.8125 q -6.60156,0 -10.27344,4.33594 -3.28125,3.94531 -3.28125,10.23437 0,4.64844 1.75781,6.99219 1.75782,2.34375 5.27344,2.34375 3.20313,0 6.44531,-3.71094 3.04688,-3.51562 3.47657,-6.95312 0.74218,-3.75 1.71875,-11.67969 -1.32813,-0.78125 -2.61719,-1.17187 -1.28906,-0.39063 -2.5,-0.39063 z" />
        <path
           inkscape:connector-curvature="0"
           id="path4188"
           style="font-style:normal;font-variant:normal;font-weight:bold;font-stretch:normal;font-family:'Comic Sans MS';-inkscape-font-specification:'Comic Sans MS Bold';fill:#ff6600;stroke:#aa4400;stroke-width:6;stroke-miterlimit:4;stroke-dasharray:none"
           d="m 312.09314,271.79233 q -0.35157,5.97656 -5.42969,5.97656 -4.92188,0 -4.92188,-5.07812 l -0.19531,-3.94532 q -8.78906,1.40625 -12.57812,9.02344 l 0.0391,19.64844 q 0,2.22656 -1.52344,3.67187 -1.52344,1.48438 -3.86719,1.48438 -2.42187,0 -3.75,-1.5625 -1.25,-1.40625 -1.25,-3.59375 l 0,-25.58594 q 0,-1.21094 0.0781,-3.59375 0.0781,-2.42187 0.0781,-3.63281 0,-2.1875 1.28907,-3.63281 1.32812,-1.48438 3.75,-1.48438 4.33593,0 5.15625,4.45313 6.91406,-5.15625 15.35156,-5.15625 7.8125,0 7.8125,10.39062 0,1.99219 -0.0391,2.61719 z" />
        <path
           inkscape:connector-curvature="0"
           id="path4190"
           style="font-style:normal;font-variant:normal;font-weight:bold;font-stretch:normal;font-family:'Comic Sans MS';-inkscape-font-specification:'Comic Sans MS Bold';fill:#ff6600;stroke:#aa4400;stroke-width:6;stroke-miterlimit:4;stroke-dasharray:none"
           d="m 346.53536,302.53452 q -1.79688,0 -5.70313,-3.90625 -3.59375,1.71875 -6.32812,2.57812 -2.73438,0.89844 -4.64844,0.89844 -9.41406,0 -14.14062,-5.03906 -4.6875,-5.03907 -4.6875,-15.07813 0,-9.41406 6.95312,-16.09375 6.95313,-6.71875 16.64063,-6.71875 3.71093,0 8.59375,2.10938 5.89843,2.53906 5.89843,5.89843 0,1.40625 -0.89843,2.46094 -0.39063,1.5625 -0.625,3.94531 -0.19532,2.34375 -0.19532,5.50782 0,7.46093 1.05469,10.74218 0.11719,0.35157 1.79688,4.0625 1.52343,3.35938 1.52343,3.82813 0,2.07031 -1.60156,3.4375 -1.5625,1.36719 -3.63281,1.36719 z m -9.6875,-26.79688 q 0,-1.25 0.15625,-2.85156 0.19531,-1.64063 0.54687,-3.63281 -0.78125,-0.39063 -1.40625,-0.54688 -0.58593,-0.19531 -1.01562,-0.19531 -5.3125,0 -9.29688,4.17969 -3.98437,4.14062 -3.98437,9.60937 0,5.23438 1.875,7.89063 1.875,2.61718 5.625,2.61718 2.42187,0 4.57031,-0.78125 2.1875,-0.82031 4.10156,-2.38281 -1.17187,-9.29687 -1.17187,-13.90625 z" />
        <path
           inkscape:connector-curvature="0"
           id="path4192"
           style="font-style:normal;font-variant:normal;font-weight:bold;font-stretch:normal;font-family:'Comic Sans MS';-inkscape-font-specification:'Comic Sans MS Bold';fill:#ff6600;stroke:#aa4400;stroke-width:6;stroke-miterlimit:4;stroke-dasharray:none"
           d="m 379.13331,268.51108 q -0.82032,0 -1.95313,-0.0391 -1.09375,-0.0781 -1.91406,-0.0781 -1.60156,0 -3.71094,0.3125 0.70313,15.78125 0.70313,20.625 0,0.50781 0.0391,1.91406 0.0391,1.36719 0.0391,2.22657 0,8.98437 -5.66406,8.98437 -2.14844,0 -3.71094,-1.32812 -1.71875,-1.40625 -1.71875,-3.51563 0,-1.40625 0.11719,-4.21875 0.11719,-2.8125 0.11719,-4.21875 0,-4.72656 -0.70313,-20.23437 -2.42187,-0.11719 -7.34375,-0.625 -4.88281,-0.54688 -4.88281,-5.07813 0,-2.1875 1.48437,-3.71094 1.48438,-1.52343 3.82813,-1.52343 1.44531,0 6.64062,0.46875 -0.0391,-1.25 -0.19531,-4.14063 -0.15625,-2.5 -0.15625,-3.86719 0,-2.1875 1.60156,-3.63281 1.60157,-1.44531 3.86719,-1.44531 5.78125,0 5.78125,9.72656 l -0.0781,3.20313 q 2.42187,-0.35157 3.94531,-0.35157 4.49219,0 6.13281,0.58594 3.125,1.09375 3.125,4.76563 0,2.22656 -1.52344,3.71093 -1.52343,1.48438 -3.86718,1.48438 z" />
        <path
           inkscape:connector-curvature="0"
           id="path4194"
           style="font-style:normal;font-variant:normal;font-weight:bold;font-stretch:normal;font-family:'Comic Sans MS';-inkscape-font-specification:'Comic Sans MS Bold';fill:#ff6600;stroke:#aa4400;stroke-width:6;stroke-miterlimit:4;stroke-dasharray:none"
           d="m 411.6462,271.36264 q -3.86719,0 -4.64844,-3.24219 -1.5625,-0.27343 -3.20312,-0.27343 -9.41406,0 -9.41406,2.57812 0,1.52344 5.66406,4.10156 7.73437,3.55469 10.46875,5.54688 5.66406,4.10156 5.66406,9.25781 0,6.71875 -6.25,10.19531 -5.03906,2.77344 -12.38281,2.77344 -5.19531,0 -9.49219,-1.60156 -5.85937,-2.1875 -5.85937,-6.44531 0,-3.90625 4.64843,-3.90625 1.79688,0 5.19532,1.13281 3.39843,1.13281 5.23437,1.13281 7.92969,0 7.96875,-3.20312 0,-1.99219 -5.50781,-4.41407 -8.04688,-3.55468 -10.3125,-5.11718 -5.50781,-3.86719 -5.50781,-9.41407 0,-7.85156 8.32031,-10.58593 4.88281,-1.60157 14.84375,-1.60157 3.90625,0 5.78125,1.01563 2.57812,1.36719 2.57812,5.03906 0,7.03125 -3.78906,7.03125 z" />
        <path
           inkscape:connector-curvature="0"
           id="path4196"
           style="font-style:normal;font-variant:normal;font-weight:bold;font-stretch:normal;font-family:'Comic Sans MS';-inkscape-font-specification:'Comic Sans MS Bold';fill:#ff6600;stroke:#aa4400;stroke-width:6;stroke-miterlimit:4;stroke-dasharray:none"
           d="m 422.07589,288.35483 q -2.1875,0 -3.63281,-1.36719 -1.40625,-1.36719 -1.40625,-3.4375 0,-1.52344 -0.11719,-4.53125 -0.0781,-3.04687 -0.0781,-4.57031 0,-5.39063 0.0781,-16.17188 0.11719,-10.78125 0.11719,-16.17187 0,-2.07031 1.44531,-3.4375 1.44531,-1.40625 3.59375,-1.40625 2.14844,0 3.59375,1.40625 1.44531,1.36719 1.44531,3.4375 l 0,41.44531 q 0,2.07031 -1.44531,3.4375 -1.40625,1.36719 -3.59375,1.36719 z m -0.11719,14.17969 q -2.34375,0 -4.375,-2.5 -1.83593,-2.30469 -1.83593,-4.29688 0,-2.03125 1.60156,-3.39844 1.60156,-1.36718 3.63281,-1.36718 2.34375,0 4.33594,2.5 1.83594,2.30468 1.83594,4.25781 0,1.99219 -1.60157,3.39844 -1.5625,1.40625 -3.59375,1.40625 z" />
        <path
           d="m 214.30176,328.15323 q -1.74316,3.58887 -7.00684,15.51758 -4.375,9.98047 -7.45117,15.65429 -5.33204,9.84375 -5.708,10.42481 -2.01661,2.97363 -4.64844,2.97363 -1.87988,0 -3.31543,-1.23047 -1.57227,-1.36718 -1.57227,-3.38379 0,-1.6748 7.14356,-14.08203 -2.63184,-3.79394 -7.55371,-11.51855 -3.69141,-5.67383 -10.83496,-17.12403 -0.6836,-1.16211 -0.6836,-2.42675 0,-1.98243 1.53809,-3.34961 1.43555,-1.26465 3.34961,-1.26465 2.25586,0 4.10156,2.29004 l 2.56348,4.10156 q 0.23926,0.41016 5.8789,9.98047 3.55469,6.11816 6.28907,9.67285 2.59765,-5.22949 7.48535,-15.82519 1.02539,-2.3584 3.07617,-7.14356 1.29883,-3.07617 4.44336,-3.07617 1.87988,0 3.31543,1.23047 1.57226,1.33301 1.57226,3.34961 0,1.16211 -1.98242,5.22949 z"
           style="font-style:normal;font-variant:normal;font-weight:bold;font-stretch:normal;font-size:70px;line-height:125%;font-family:'Comic Sans MS';-inkscape-font-specification:'Comic Sans MS Bold';letter-spacing:0px;word-spacing:0px;fill:#ff6600;fill-opacity:1;stroke:#aa4400;stroke-width:6;stroke-linecap:butt;stroke-linejoin:miter;stroke-miterlimit:4;stroke-dasharray:none;stroke-opacity:1"
           id="path4216"
           inkscape:connector-curvature="0" />
        <path
           d="m 221.76757,372.34756 q -6.32324,0 -10.86914,-4.34082 -4.99023,-4.75097 -5.22949,-12.68066 -0.23926,-7.55371 4.13574,-13.4668 5.19532,-6.97265 14.45801,-6.97265 6.83594,0 10.86914,5.46875 3.62305,4.92187 3.62305,12.20215 0,7.92968 -4.23828,13.53515 -4.75098,6.25488 -12.74903,6.25488 z m 2.05078,-28.4375 q -4.2041,-0.0342 -6.63086,3.82813 -2.05078,3.24707 -2.05078,7.58789 0,4.10156 2.32422,6.28906 1.84571,1.74317 4.30664,1.74317 2.97364,0 5.16114,-2.0166 2.49511,-2.3584 2.66601,-6.39161 0.44434,-11.00586 -5.77637,-11.04004 z"
           style="font-style:normal;font-variant:normal;font-weight:bold;font-stretch:normal;font-size:70px;line-height:125%;font-family:'Comic Sans MS';-inkscape-font-specification:'Comic Sans MS Bold';letter-spacing:0px;word-spacing:0px;fill:#ff6600;fill-opacity:1;stroke:#aa4400;stroke-width:6;stroke-linecap:butt;stroke-linejoin:miter;stroke-miterlimit:4;stroke-dasharray:none;stroke-opacity:1"
           id="path4218"
           inkscape:connector-curvature="0" />
        <path
           d="m 269.32616,350.5751 c 0,1.52669 0.0114,3.82813 0.0342,6.9043 0.0228,3.07617 0.0342,5.37761 0.0342,6.9043 0,0.47851 0.0342,1.19629 0.10254,2.15332 0.0912,0.93425 0.13672,1.64063 0.13672,2.11914 0,1.27604 -0.46712,2.32422 -1.40136,3.14453 -0.91146,0.8431 -2.0394,1.26465 -3.38379,1.26465 -1.89127,0 -3.26985,-0.85449 -4.13574,-2.56348 -2.91667,1.07097 -5.93587,1.60645 -9.05762,1.60645 -3.23567,0 -5.95865,-0.68359 -8.16894,-2.05078 -2.48373,-1.57227 -3.96485,-3.86231 -4.44336,-6.87012 -0.88867,-5.69661 -1.33301,-10.78939 -1.33301,-15.27832 0,-2.96224 0.3418,-6.34603 1.02539,-10.15137 0.45573,-2.57487 1.99382,-3.8623 4.61426,-3.8623 1.32161,0 2.44954,0.42155 3.38379,1.26464 0.93425,0.82031 1.40137,1.86849 1.40137,3.14454 0,1.0026 -0.17091,2.57486 -0.5127,4.71679 -0.31901,2.14193 -0.47852,3.77116 -0.47852,4.8877 0,3.21289 0.10253,6.02701 0.30762,8.44238 0.22786,2.39258 0.55826,4.375 0.99121,5.94727 0.56966,0.25065 1.11654,0.44433 1.64063,0.58105 0.54687,0.13672 1.07096,0.20508 1.57225,0.20508 2.5293,0 5.30926,-0.36458 8.33985,-1.09375 0,-1.75456 -0.0114,-3.74838 -0.0342,-5.98145 -0.0456,-2.66601 -0.0684,-4.58007 -0.0684,-5.74218 0,-4.67123 0.21647,-8.70443 0.6494,-12.09961 0.3418,-2.71159 1.89128,-4.06739 4.64844,-4.06739 1.3444,0 2.49512,0.42155 3.45216,1.26465 0.95702,0.8431 1.40136,1.90267 1.33301,3.17871 -0.43296,8.68164 -0.64943,11.54297 -0.64943,11.54297 z"
           style="font-style:normal;font-variant:normal;font-weight:bold;font-stretch:normal;font-size:70px;line-height:125%;font-family:'Comic Sans MS';-inkscape-font-specification:'Comic Sans MS Bold';letter-spacing:0px;word-spacing:0px;fill:#ff6600;fill-opacity:1;stroke:#aa4400;stroke-width:6;stroke-linecap:butt;stroke-linejoin:miter;stroke-miterlimit:4;stroke-dasharray:none;stroke-opacity:1"
           id="path4220"
           inkscape:connector-curvature="0"
           sodipodi:nodetypes="csscscscsccscscscscccsccscssccc" />
        <path
           d="m 325.61883,340.21866 q -3.58887,13.39844 -7.21193,24.33594 -1.02539,3.07617 -3.34961,6.32324 -1.64062,2.25586 -4.375,2.22168 -4.30664,-0.0684 -6.76758,-8.30567 -0.92284,-3.14453 -2.1875,-11.72363 -0.71776,1.50391 -0.88867,2.0166 -1.77733,4.23828 -5.19531,13.15918 -0.5127,1.43555 -1.53809,2.29004 -1.43554,2.29004 -4.27246,2.39258 -1.60644,0.0684 -3.38379,-2.87109 -1.87988,-2.97364 -3.04199,-7.65625 -1.05957,-4.23829 -3.28125,-18.45704 -0.4785,-3.07617 -0.4785,-4.81933 0,-1.87988 1.40136,-3.11035 1.43554,-1.26465 3.41797,-1.26465 3.69141,0 4.5459,3.65723 0.44434,1.91406 0.75195,4.71679 0.41016,4.03321 0.5127,4.75098 0.44433,2.66601 1.36719,8.71582 2.52929,-6.93848 5.81054,-17.26074 1.40137,-4.44336 5.26368,-4.44336 3.79394,0 4.99023,4.95605 0.85449,3.48633 1.81152,9.05762 1.40137,8.10059 1.70899,9.63867 0.30761,-1.05957 5.36621,-20.78125 0.75195,-2.93945 4.27246,-2.93945 1.94824,0 3.41797,1.26465 1.5039,1.26464 1.5039,3.14453 0,0.34179 -0.17089,0.99121 z"
           style="font-style:normal;font-variant:normal;font-weight:bold;font-stretch:normal;font-size:70px;line-height:125%;font-family:'Comic Sans MS';-inkscape-font-specification:'Comic Sans MS Bold';letter-spacing:0px;word-spacing:0px;fill:#ff6600;fill-opacity:1;stroke:#aa4400;stroke-width:6;stroke-linecap:butt;stroke-linejoin:miter;stroke-miterlimit:4;stroke-dasharray:none;stroke-opacity:1"
           id="path4222"
           inkscape:connector-curvature="0" />
        <path
           d="m 331.74705,329.24698 q -2.1875,0 -3.79395,-1.46973 -1.60645,-1.46972 -1.60645,-3.58886 0,-2.11915 1.60645,-3.58887 1.60645,-1.46973 3.79395,-1.46973 2.1875,0 3.75975,1.46973 1.60645,1.46972 1.60645,3.58887 0,2.11914 -1.60645,3.58886 -1.57226,1.46973 -3.75976,1.46973 z m 2.90526,25.05371 q 0,1.94824 0.10254,6.25488 0.13672,4.30664 0.13672,6.25489 0,1.98242 -1.33301,3.28125 -1.33301,1.26464 -3.38379,1.26464 -2.05077,0 -3.38378,-1.26464 -1.33301,-1.29883 -1.33301,-3.28125 0,-1.94825 -0.13671,-6.25489 -0.10254,-4.30664 -0.10254,-6.25488 0,-3.04199 0.34179,-7.62207 0.3418,-4.58008 0.3418,-7.62207 0,-1.98242 1.33301,-3.24707 1.33301,-1.29883 3.38379,-1.29883 2.05077,0 3.38378,1.29883 1.33301,1.26465 1.33301,3.24707 0,3.04199 -0.34179,7.62207 -0.3418,4.58008 -0.3418,7.62207 z"
           style="font-style:normal;font-variant:normal;font-weight:bold;font-stretch:normal;font-size:70px;line-height:125%;font-family:'Comic Sans MS';-inkscape-font-specification:'Comic Sans MS Bold';letter-spacing:0px;word-spacing:0px;fill:#ff6600;fill-opacity:1;stroke:#aa4400;stroke-width:6;stroke-linecap:butt;stroke-linejoin:miter;stroke-miterlimit:4;stroke-dasharray:none;stroke-opacity:1"
           id="path4224"
           inkscape:connector-curvature="0" />
        <path
           d="m 363.94605,372.75772 q -4.2041,0 -4.68262,-4.13574 -0.47851,-3.52051 -0.95703,-7.0752 -0.51269,-3.75976 -0.51269,-7.07519 0,-0.88867 0.10254,-3.04199 0.13672,-2.15332 0.13672,-3.042 0,-0.23925 0.0684,-1.19629 0.0684,-0.99121 0.0684,-1.60644 0,-2.83691 -1.46972,-2.83691 -3.14453,0 -6.18653,3.6914 -3.00781,3.65723 -4.71679,9.29688 -0.0684,1.12793 -0.30762,3.00781 -0.20508,1.53809 -0.20508,3.00781 0,0.95703 0.20508,2.90528 0.23926,1.91406 0.23926,2.87109 0,1.94824 -1.36719,3.21289 -1.33301,1.29883 -3.38379,1.29883 -2.05078,0 -3.38379,-1.29883 -1.33301,-1.26465 -1.33301,-3.21289 0,-0.95703 -0.20507,-2.87109 -0.20508,-1.94825 -0.20508,-2.90528 0,-3.28125 0.47851,-9.12597 0.47852,-5.84473 0.47852,-9.12598 0,-1.02539 -0.13672,-3.04199 -0.10254,-2.05078 -0.10254,-3.042 0,-1.91406 1.36719,-3.14453 1.40137,-1.26465 3.41797,-1.26465 4.47754,0 4.78515,5.36622 l 0.0342,0.37597 q 4.99024,-5.02441 10.52735,-5.02441 6.45996,0 8.9209,5.40039 1.64062,3.62305 1.64062,10.83496 l 0,2.42676 q -0.0342,1.57226 -0.0342,2.22168 0,2.66601 0.71778,6.87011 0.75195,4.20411 0.75195,6.83594 0,1.91406 -1.36719,3.17871 -1.36719,1.26465 -3.38379,1.26465 z"
           style="font-style:normal;font-variant:normal;font-weight:bold;font-stretch:normal;font-size:70px;line-height:125%;font-family:'Comic Sans MS';-inkscape-font-specification:'Comic Sans MS Bold';letter-spacing:0px;word-spacing:0px;fill:#ff6600;fill-opacity:1;stroke:#aa4400;stroke-width:6;stroke-linecap:butt;stroke-linejoin:miter;stroke-miterlimit:4;stroke-dasharray:none;stroke-opacity:1"
           id="path4226"
           inkscape:connector-curvature="0" />
        <path
           d="m 157.78715,258.35483 q -3.51563,0 -5.19532,-3.71094 -0.78125,-1.75781 -1.5625,-2.10937 -0.58593,-0.27344 -3.08593,-0.27344 -4.92188,0 -11.36719,7.65625 -9.02344,10.70312 -9.02344,20.03906 0,4.25781 2.85156,7.30469 2.85157,3.04687 6.83594,3.04687 3.86719,0 7.85156,-2.03125 1.40625,-0.74218 5.9375,-3.82812 3.04688,-2.03125 4.60938,-2.03125 2.34375,0 3.98437,1.71875 1.52344,1.60156 1.52344,3.67187 0,2.30469 -2.03125,4.02344 -10.74219,9.0625 -21.875,9.0625 -8.78906,0 -14.84375,-6.40625 -5.78125,-6.17187 -5.78125,-14.53125 0,-13.08594 11.44531,-26.71875 9.72657,-11.5625 19.88282,-11.5625 1.71875,0 3.08593,0.11719 1.40625,0.11719 2.46094,0.35156 1.71875,-1.67969 4.14063,-1.67969 3.98437,0 4.92187,4.57032 0.66406,3.28125 0.66406,7.65625 0,1.95312 -1.13281,3.55468 -1.48437,2.10938 -4.29687,2.10938 z"
           style="font-style:normal;font-variant:normal;font-weight:bold;font-stretch:normal;font-family:'Comic Sans MS';-inkscape-font-specification:'Comic Sans MS Bold';fill:#ff6600;stroke:#aa4400;stroke-width:6;stroke-miterlimit:4;stroke-dasharray:none"
           id="path4248"
           inkscape:connector-curvature="0" />
        <path
           inkscape:connector-curvature="0"
           d="m 178.98995,302.26108 q -7.22656,0 -12.42187,-4.96094 -5.70313,-5.42969 -5.97657,-14.49219 -0.27343,-8.63281 4.72657,-15.39062 5.9375,-7.96875 16.52343,-7.96875 7.8125,0 12.42188,6.25 4.14062,5.625 4.14062,13.94531 0,9.0625 -4.84375,15.46875 -5.42968,7.14844 -14.57031,7.14844 z m 2.34375,-32.5 q -4.80469,-0.0391 -7.57812,4.375 -2.34375,3.71094 -2.34375,8.67187 0,4.6875 2.65625,7.1875 2.10937,1.99219 4.92187,1.99219 3.39844,0 5.89844,-2.30469 2.85156,-2.69531 3.04687,-7.30468 0.50782,-12.57813 -6.60156,-12.61719 z"
           style="font-style:normal;font-variant:normal;font-weight:bold;font-stretch:normal;font-family:'Comic Sans MS';-inkscape-font-specification:'Comic Sans MS Bold';fill:#ff6600;stroke:#aa4400;stroke-width:6;stroke-miterlimit:4;stroke-dasharray:none"
           id="path4250" />
        <path
           d="m 231.5655,302.72983 q -4.80469,0 -5.35156,-4.72656 -0.54688,-4.02344 -1.09375,-8.08594 -0.58594,-4.29688 -0.58594,-8.08594 0,-1.01562 0.11719,-3.47656 0.15625,-2.46094 0.15625,-3.47656 0,-0.27344 0.0781,-1.36719 0.0781,-1.13281 0.0781,-1.83594 0,-3.24219 -1.67969,-3.24219 -3.59375,0 -7.07031,4.21875 -3.4375,4.17969 -5.39063,10.625 -0.0781,1.28907 -0.35156,3.4375 -0.23437,1.75782 -0.23437,3.4375 0,1.09375 0.23437,3.32032 0.27344,2.1875 0.27344,3.28125 0,2.22656 -1.5625,3.67187 -1.52344,1.48438 -3.86719,1.48438 -2.34375,0 -3.86719,-1.48438 -1.52343,-1.44531 -1.52343,-3.67187 0,-1.09375 -0.23438,-3.28125 -0.23437,-2.22657 -0.23437,-3.32032 0,-3.75 0.54687,-10.42968 0.54688,-6.67969 0.54688,-10.42969 0,-1.17188 -0.15625,-3.47656 -0.11719,-2.34375 -0.11719,-3.47657 0,-2.1875 1.5625,-3.59375 1.60156,-1.44531 3.90625,-1.44531 5.11719,0 5.46875,6.13281 l 0.0391,0.42969 q 5.70313,-5.74219 12.03125,-5.74219 7.38281,0 10.19531,6.17188 1.875,4.14062 1.875,12.38281 l 0,2.77344 q -0.0391,1.79687 -0.0391,2.53906 0,3.04688 0.82031,7.85156 0.85938,4.80469 0.85938,7.8125 0,2.1875 -1.5625,3.63282 -1.5625,1.44531 -3.86719,1.44531 z"
           style="font-style:normal;font-variant:normal;font-weight:bold;font-stretch:normal;font-family:'Comic Sans MS';-inkscape-font-specification:'Comic Sans MS Bold';fill:#ff6600;stroke:#aa4400;stroke-width:6;stroke-miterlimit:4;stroke-dasharray:none"
           id="path4252"
           inkscape:connector-curvature="0" />
        <path
           d="m 276.66048,276.67514 q -1.64063,9.17969 -1.95313,19.375 -0.39062,12.61719 -4.21875,18.32031 -5.11718,7.61719 -18.125,7.61719 -15.19531,0 -15.19531,-6.01562 0,-2.14844 1.36719,-3.47657 1.36719,-1.32812 3.59375,-1.32812 1.75781,0 5.03906,0.66406 3.28125,0.66406 5.82031,0.66406 5.82032,0 8.59375,-3.55468 2.65625,-3.47657 3.125,-11.05469 -1.99218,2.03125 -4.49218,3.04687 -2.5,1.01563 -5.46875,1.01563 -7.77344,0 -12.65625,-5.03906 -4.84375,-5.07813 -4.84375,-12.96875 0,-10.625 6.48437,-17.1875 6.71875,-6.79688 18.16406,-6.79688 3.67188,0 6.32813,0.89844 2.65625,0.89844 4.29687,2.73437 4.96094,0.58594 4.96094,5.85938 0,2.61719 -0.82031,7.22656 z m -15.15625,-7.8125 q -6.60156,0 -10.27344,4.33594 -3.28125,3.94531 -3.28125,10.23437 0,4.64844 1.75781,6.99219 1.75782,2.34375 5.27344,2.34375 3.20313,0 6.44531,-3.71094 3.04688,-3.51562 3.47657,-6.95312 0.74218,-3.75 1.71875,-11.67969 -1.32813,-0.78125 -2.61719,-1.17187 -1.28906,-0.39063 -2.5,-0.39063 z"
           style="font-style:normal;font-variant:normal;font-weight:bold;font-stretch:normal;font-family:'Comic Sans MS';-inkscape-font-specification:'Comic Sans MS Bold';fill:#ff6600;stroke:#aa4400;stroke-width:6;stroke-miterlimit:4;stroke-dasharray:none"
           id="path4254"
           inkscape:connector-curvature="0" />
        <path
           d="m 312.09314,271.79233 q -0.35157,5.97656 -5.42969,5.97656 -4.92188,0 -4.92188,-5.07812 l -0.19531,-3.94532 q -8.78906,1.40625 -12.57812,9.02344 l 0.0391,19.64844 q 0,2.22656 -1.52344,3.67187 -1.52344,1.48438 -3.86719,1.48438 -2.42187,0 -3.75,-1.5625 -1.25,-1.40625 -1.25,-3.59375 l 0,-25.58594 q 0,-1.21094 0.0781,-3.59375 0.0781,-2.42187 0.0781,-3.63281 0,-2.1875 1.28907,-3.63281 1.32812,-1.48438 3.75,-1.48438 4.33593,0 5.15625,4.45313 6.91406,-5.15625 15.35156,-5.15625 7.8125,0 7.8125,10.39062 0,1.99219 -0.0391,2.61719 z"
           style="font-style:normal;font-variant:normal;font-weight:bold;font-stretch:normal;font-family:'Comic Sans MS';-inkscape-font-specification:'Comic Sans MS Bold';fill:#ff6600;stroke:#aa4400;stroke-width:6;stroke-miterlimit:4;stroke-dasharray:none"
           id="path4256"
           inkscape:connector-curvature="0" />
        <path
           d="m 346.53536,302.53452 q -1.79688,0 -5.70313,-3.90625 -3.59375,1.71875 -6.32812,2.57812 -2.73438,0.89844 -4.64844,0.89844 -9.41406,0 -14.14062,-5.03906 -4.6875,-5.03907 -4.6875,-15.07813 0,-9.41406 6.95312,-16.09375 6.95313,-6.71875 16.64063,-6.71875 3.71093,0 8.59375,2.10938 5.89843,2.53906 5.89843,5.89843 0,1.40625 -0.89843,2.46094 -0.39063,1.5625 -0.625,3.94531 -0.19532,2.34375 -0.19532,5.50782 0,7.46093 1.05469,10.74218 0.11719,0.35157 1.79688,4.0625 1.52343,3.35938 1.52343,3.82813 0,2.07031 -1.60156,3.4375 -1.5625,1.36719 -3.63281,1.36719 z m -9.6875,-26.79688 q 0,-1.25 0.15625,-2.85156 0.19531,-1.64063 0.54687,-3.63281 -0.78125,-0.39063 -1.40625,-0.54688 -0.58593,-0.19531 -1.01562,-0.19531 -5.3125,0 -9.29688,4.17969 -3.98437,4.14062 -3.98437,9.60937 0,5.23438 1.875,7.89063 1.875,2.61718 5.625,2.61718 2.42187,0 4.57031,-0.78125 2.1875,-0.82031 4.10156,-2.38281 -1.17187,-9.29687 -1.17187,-13.90625 z"
           style="font-style:normal;font-variant:normal;font-weight:bold;font-stretch:normal;font-family:'Comic Sans MS';-inkscape-font-specification:'Comic Sans MS Bold';fill:#ff6600;stroke:#aa4400;stroke-width:6;stroke-miterlimit:4;stroke-dasharray:none"
           id="path4258"
           inkscape:connector-curvature="0" />
        <path
           d="m 379.13331,268.51108 q -0.82032,0 -1.95313,-0.0391 -1.09375,-0.0781 -1.91406,-0.0781 -1.60156,0 -3.71094,0.3125 0.70313,15.78125 0.70313,20.625 0,0.50781 0.0391,1.91406 0.0391,1.36719 0.0391,2.22657 0,8.98437 -5.66406,8.98437 -2.14844,0 -3.71094,-1.32812 -1.71875,-1.40625 -1.71875,-3.51563 0,-1.40625 0.11719,-4.21875 0.11719,-2.8125 0.11719,-4.21875 0,-4.72656 -0.70313,-20.23437 -2.42187,-0.11719 -7.34375,-0.625 -4.88281,-0.54688 -4.88281,-5.07813 0,-2.1875 1.48437,-3.71094 1.48438,-1.52343 3.82813,-1.52343 1.44531,0 6.64062,0.46875 -0.0391,-1.25 -0.19531,-4.14063 -0.15625,-2.5 -0.15625,-3.86719 0,-2.1875 1.60156,-3.63281 1.60157,-1.44531 3.86719,-1.44531 5.78125,0 5.78125,9.72656 l -0.0781,3.20313 q 2.42187,-0.35157 3.94531,-0.35157 4.49219,0 6.13281,0.58594 3.125,1.09375 3.125,4.76563 0,2.22656 -1.52344,3.71093 -1.52343,1.48438 -3.86718,1.48438 z"
           style="font-style:normal;font-variant:normal;font-weight:bold;font-stretch:normal;font-family:'Comic Sans MS';-inkscape-font-specification:'Comic Sans MS Bold';fill:#ff6600;stroke:#aa4400;stroke-width:6;stroke-miterlimit:4;stroke-dasharray:none"
           id="path4260"
           inkscape:connector-curvature="0" />
        <path
           d="m 411.6462,271.36264 q -3.86719,0 -4.64844,-3.24219 -1.5625,-0.27343 -3.20312,-0.27343 -9.41406,0 -9.41406,2.57812 0,1.52344 5.66406,4.10156 7.73437,3.55469 10.46875,5.54688 5.66406,4.10156 5.66406,9.25781 0,6.71875 -6.25,10.19531 -5.03906,2.77344 -12.38281,2.77344 -5.19531,0 -9.49219,-1.60156 -5.85937,-2.1875 -5.85937,-6.44531 0,-3.90625 4.64843,-3.90625 1.79688,0 5.19532,1.13281 3.39843,1.13281 5.23437,1.13281 7.92969,0 7.96875,-3.20312 0,-1.99219 -5.50781,-4.41407 -8.04688,-3.55468 -10.3125,-5.11718 -5.50781,-3.86719 -5.50781,-9.41407 0,-7.85156 8.32031,-10.58593 4.88281,-1.60157 14.84375,-1.60157 3.90625,0 5.78125,1.01563 2.57812,1.36719 2.57812,5.03906 0,7.03125 -3.78906,7.03125 z"
           style="font-style:normal;font-variant:normal;font-weight:bold;font-stretch:normal;font-family:'Comic Sans MS';-inkscape-font-specification:'Comic Sans MS Bold';fill:#ff6600;stroke:#aa4400;stroke-width:6;stroke-miterlimit:4;stroke-dasharray:none"
           id="path4262"
           inkscape:connector-curvature="0" />
        <path
           d="m 422.07589,288.35483 q -2.1875,0 -3.63281,-1.36719 -1.40625,-1.36719 -1.40625,-3.4375 0,-1.52344 -0.11719,-4.53125 -0.0781,-3.04687 -0.0781,-4.57031 0,-5.39063 0.0781,-16.17188 0.11719,-10.78125 0.11719,-16.17187 0,-2.07031 1.44531,-3.4375 1.44531,-1.40625 3.59375,-1.40625 2.14844,0 3.59375,1.40625 1.44531,1.36719 1.44531,3.4375 l 0,41.44531 q 0,2.07031 -1.44531,3.4375 -1.40625,1.36719 -3.59375,1.36719 z m -0.11719,14.17969 q -2.34375,0 -4.375,-2.5 -1.83593,-2.30469 -1.83593,-4.29688 0,-2.03125 1.60156,-3.39844 1.60156,-1.36718 3.63281,-1.36718 2.34375,0 4.33594,2.5 1.83594,2.30468 1.83594,4.25781 0,1.99219 -1.60157,3.39844 -1.5625,1.40625 -3.59375,1.40625 z"
           style="font-style:normal;font-variant:normal;font-weight:bold;font-stretch:normal;font-family:'Comic Sans MS';-inkscape-font-specification:'Comic Sans MS Bold';fill:#ff6600;stroke:#aa4400;stroke-width:6;stroke-miterlimit:4;stroke-dasharray:none"
           id="path4264"
           inkscape:connector-curvature="0" />
        <path
           inkscape:connector-curvature="0"
           id="path4266"
           style="font-style:normal;font-variant:normal;font-weight:bold;font-stretch:normal;font-size:70px;line-height:125%;font-family:'Comic Sans MS';-inkscape-font-specification:'Comic Sans MS Bold';letter-spacing:0px;word-spacing:0px;fill:#ff6600;fill-opacity:1;stroke:#aa4400;stroke-width:6;stroke-linecap:butt;stroke-linejoin:miter;stroke-miterlimit:4;stroke-dasharray:none;stroke-opacity:1"
           d="m 214.30176,328.15323 q -1.74316,3.58887 -7.00684,15.51758 -4.375,9.98047 -7.45117,15.65429 -5.33204,9.84375 -5.708,10.42481 -2.01661,2.97363 -4.64844,2.97363 -1.87988,0 -3.31543,-1.23047 -1.57227,-1.36718 -1.57227,-3.38379 0,-1.6748 7.14356,-14.08203 -2.63184,-3.79394 -7.55371,-11.51855 -3.69141,-5.67383 -10.83496,-17.12403 -0.6836,-1.16211 -0.6836,-2.42675 0,-1.98243 1.53809,-3.34961 1.43555,-1.26465 3.34961,-1.26465 2.25586,0 4.10156,2.29004 l 2.56348,4.10156 q 0.23926,0.41016 5.8789,9.98047 3.55469,6.11816 6.28907,9.67285 2.59765,-5.22949 7.48535,-15.82519 1.02539,-2.3584 3.07617,-7.14356 1.29883,-3.07617 4.44336,-3.07617 1.87988,0 3.31543,1.23047 1.57226,1.33301 1.57226,3.34961 0,1.16211 -1.98242,5.22949 z" />
        <path
           inkscape:connector-curvature="0"
           id="path4268"
           style="font-style:normal;font-variant:normal;font-weight:bold;font-stretch:normal;font-size:70px;line-height:125%;font-family:'Comic Sans MS';-inkscape-font-specification:'Comic Sans MS Bold';letter-spacing:0px;word-spacing:0px;fill:#ff6600;fill-opacity:1;stroke:#aa4400;stroke-width:6;stroke-linecap:butt;stroke-linejoin:miter;stroke-miterlimit:4;stroke-dasharray:none;stroke-opacity:1"
           d="m 221.76757,372.34756 q -6.32324,0 -10.86914,-4.34082 -4.99023,-4.75097 -5.22949,-12.68066 -0.23926,-7.55371 4.13574,-13.4668 5.19532,-6.97265 14.45801,-6.97265 6.83594,0 10.86914,5.46875 3.62305,4.92187 3.62305,12.20215 0,7.92968 -4.23828,13.53515 -4.75098,6.25488 -12.74903,6.25488 z m 2.05078,-28.4375 q -4.2041,-0.0342 -6.63086,3.82813 -2.05078,3.24707 -2.05078,7.58789 0,4.10156 2.32422,6.28906 1.84571,1.74317 4.30664,1.74317 2.97364,0 5.16114,-2.0166 2.49511,-2.3584 2.66601,-6.39161 0.44434,-11.00586 -5.77637,-11.04004 z" />
        <path
           sodipodi:nodetypes="csscscscsccscscscscccsccscssccc"
           inkscape:connector-curvature="0"
           id="path4270"
           style="font-style:normal;font-variant:normal;font-weight:bold;font-stretch:normal;font-size:70px;line-height:125%;font-family:'Comic Sans MS';-inkscape-font-specification:'Comic Sans MS Bold';letter-spacing:0px;word-spacing:0px;fill:#ff6600;fill-opacity:1;stroke:#aa4400;stroke-width:6;stroke-linecap:butt;stroke-linejoin:miter;stroke-miterlimit:4;stroke-dasharray:none;stroke-opacity:1"
           d="m 269.32616,350.5751 c 0,1.52669 0.0114,3.82813 0.0342,6.9043 0.0228,3.07617 0.0342,5.37761 0.0342,6.9043 0,0.47851 0.0342,1.19629 0.10254,2.15332 0.0912,0.93425 0.13672,1.64063 0.13672,2.11914 0,1.27604 -0.46712,2.32422 -1.40136,3.14453 -0.91146,0.8431 -2.0394,1.26465 -3.38379,1.26465 -1.89127,0 -3.26985,-0.85449 -4.13574,-2.56348 -2.91667,1.07097 -5.93587,1.60645 -9.05762,1.60645 -3.23567,0 -5.95865,-0.68359 -8.16894,-2.05078 -2.48373,-1.57227 -3.96485,-3.86231 -4.44336,-6.87012 -0.88867,-5.69661 -1.33301,-10.78939 -1.33301,-15.27832 0,-2.96224 0.3418,-6.34603 1.02539,-10.15137 0.45573,-2.57487 1.99382,-3.8623 4.61426,-3.8623 1.32161,0 2.44954,0.42155 3.38379,1.26464 0.93425,0.82031 1.40137,1.86849 1.40137,3.14454 0,1.0026 -0.17091,2.57486 -0.5127,4.71679 -0.31901,2.14193 -0.47852,3.77116 -0.47852,4.8877 0,3.21289 0.10253,6.02701 0.30762,8.44238 0.22786,2.39258 0.55826,4.375 0.99121,5.94727 0.56966,0.25065 1.11654,0.44433 1.64063,0.58105 0.54687,0.13672 1.07096,0.20508 1.57225,0.20508 2.5293,0 5.30926,-0.36458 8.33985,-1.09375 0,-1.75456 -0.0114,-3.74838 -0.0342,-5.98145 -0.0456,-2.66601 -0.0684,-4.58007 -0.0684,-5.74218 0,-4.67123 0.21647,-8.70443 0.6494,-12.09961 0.3418,-2.71159 1.89128,-4.06739 4.64844,-4.06739 1.3444,0 2.49512,0.42155 3.45216,1.26465 0.95702,0.8431 1.40136,1.90267 1.33301,3.17871 -0.43296,8.68164 -0.64943,11.54297 -0.64943,11.54297 z" />
        <path
           inkscape:connector-curvature="0"
           id="path4272"
           style="font-style:normal;font-variant:normal;font-weight:bold;font-stretch:normal;font-size:70px;line-height:125%;font-family:'Comic Sans MS';-inkscape-font-specification:'Comic Sans MS Bold';letter-spacing:0px;word-spacing:0px;fill:#ff6600;fill-opacity:1;stroke:#aa4400;stroke-width:6;stroke-linecap:butt;stroke-linejoin:miter;stroke-miterlimit:4;stroke-dasharray:none;stroke-opacity:1"
           d="m 325.61883,340.21866 q -3.58887,13.39844 -7.21193,24.33594 -1.02539,3.07617 -3.34961,6.32324 -1.64062,2.25586 -4.375,2.22168 -4.30664,-0.0684 -6.76758,-8.30567 -0.92284,-3.14453 -2.1875,-11.72363 -0.71776,1.50391 -0.88867,2.0166 -1.77733,4.23828 -5.19531,13.15918 -0.5127,1.43555 -1.53809,2.29004 -1.43554,2.29004 -4.27246,2.39258 -1.60644,0.0684 -3.38379,-2.87109 -1.87988,-2.97364 -3.04199,-7.65625 -1.05957,-4.23829 -3.28125,-18.45704 -0.4785,-3.07617 -0.4785,-4.81933 0,-1.87988 1.40136,-3.11035 1.43554,-1.26465 3.41797,-1.26465 3.69141,0 4.5459,3.65723 0.44434,1.91406 0.75195,4.71679 0.41016,4.03321 0.5127,4.75098 0.44433,2.66601 1.36719,8.71582 2.52929,-6.93848 5.81054,-17.26074 1.40137,-4.44336 5.26368,-4.44336 3.79394,0 4.99023,4.95605 0.85449,3.48633 1.81152,9.05762 1.40137,8.10059 1.70899,9.63867 0.30761,-1.05957 5.36621,-20.78125 0.75195,-2.93945 4.27246,-2.93945 1.94824,0 3.41797,1.26465 1.5039,1.26464 1.5039,3.14453 0,0.34179 -0.17089,0.99121 z" />
        <path
           inkscape:connector-curvature="0"
           id="path4274"
           style="font-style:normal;font-variant:normal;font-weight:bold;font-stretch:normal;font-size:70px;line-height:125%;font-family:'Comic Sans MS';-inkscape-font-specification:'Comic Sans MS Bold';letter-spacing:0px;word-spacing:0px;fill:#ff6600;fill-opacity:1;stroke:#aa4400;stroke-width:6;stroke-linecap:butt;stroke-linejoin:miter;stroke-miterlimit:4;stroke-dasharray:none;stroke-opacity:1"
           d="m 331.74705,329.24698 q -2.1875,0 -3.79395,-1.46973 -1.60645,-1.46972 -1.60645,-3.58886 0,-2.11915 1.60645,-3.58887 1.60645,-1.46973 3.79395,-1.46973 2.1875,0 3.75975,1.46973 1.60645,1.46972 1.60645,3.58887 0,2.11914 -1.60645,3.58886 -1.57226,1.46973 -3.75976,1.46973 z m 2.90526,25.05371 q 0,1.94824 0.10254,6.25488 0.13672,4.30664 0.13672,6.25489 0,1.98242 -1.33301,3.28125 -1.33301,1.26464 -3.38379,1.26464 -2.05077,0 -3.38378,-1.26464 -1.33301,-1.29883 -1.33301,-3.28125 0,-1.94825 -0.13671,-6.25489 -0.10254,-4.30664 -0.10254,-6.25488 0,-3.04199 0.34179,-7.62207 0.3418,-4.58008 0.3418,-7.62207 0,-1.98242 1.33301,-3.24707 1.33301,-1.29883 3.38379,-1.29883 2.05077,0 3.38378,1.29883 1.33301,1.26465 1.33301,3.24707 0,3.04199 -0.34179,7.62207 -0.3418,4.58008 -0.3418,7.62207 z" />
        <path
           inkscape:connector-curvature="0"
           id="path4276"
           style="font-style:normal;font-variant:normal;font-weight:bold;font-stretch:normal;font-size:70px;line-height:125%;font-family:'Comic Sans MS';-inkscape-font-specification:'Comic Sans MS Bold';letter-spacing:0px;word-spacing:0px;fill:#ff6600;fill-opacity:1;stroke:#aa4400;stroke-width:6;stroke-linecap:butt;stroke-linejoin:miter;stroke-miterlimit:4;stroke-dasharray:none;stroke-opacity:1"
           d="m 363.94605,372.75772 q -4.2041,0 -4.68262,-4.13574 -0.47851,-3.52051 -0.95703,-7.0752 -0.51269,-3.75976 -0.51269,-7.07519 0,-0.88867 0.10254,-3.04199 0.13672,-2.15332 0.13672,-3.042 0,-0.23925 0.0684,-1.19629 0.0684,-0.99121 0.0684,-1.60644 0,-2.83691 -1.46972,-2.83691 -3.14453,0 -6.18653,3.6914 -3.00781,3.65723 -4.71679,9.29688 -0.0684,1.12793 -0.30762,3.00781 -0.20508,1.53809 -0.20508,3.00781 0,0.95703 0.20508,2.90528 0.23926,1.91406 0.23926,2.87109 0,1.94824 -1.36719,3.21289 -1.33301,1.29883 -3.38379,1.29883 -2.05078,0 -3.38379,-1.29883 -1.33301,-1.26465 -1.33301,-3.21289 0,-0.95703 -0.20507,-2.87109 -0.20508,-1.94825 -0.20508,-2.90528 0,-3.28125 0.47851,-9.12597 0.47852,-5.84473 0.47852,-9.12598 0,-1.02539 -0.13672,-3.04199 -0.10254,-2.05078 -0.10254,-3.042 0,-1.91406 1.36719,-3.14453 1.40137,-1.26465 3.41797,-1.26465 4.47754,0 4.78515,5.36622 l 0.0342,0.37597 q 4.99024,-5.02441 10.52735,-5.02441 6.45996,0 8.9209,5.40039 1.64062,3.62305 1.64062,10.83496 l 0,2.42676 q -0.0342,1.57226 -0.0342,2.22168 0,2.66601 0.71778,6.87011 0.75195,4.20411 0.75195,6.83594 0,1.91406 -1.36719,3.17871 -1.36719,1.26465 -3.38379,1.26465 z" />
      </g>
    </g>
  </g>
</svg>
