<?xml version="1.0" encoding="UTF-8" standalone="no"?>
<!-- Created with Inkscape (http://www.inkscape.org/) -->

<svg
   xmlns:dc="http://purl.org/dc/elements/1.1/"
   xmlns:cc="http://creativecommons.org/ns#"
   xmlns:rdf="http://www.w3.org/1999/02/22-rdf-syntax-ns#"
   xmlns:svg="http://www.w3.org/2000/svg"
   xmlns="http://www.w3.org/2000/svg"
   xmlns:sodipodi="http://sodipodi.sourceforge.net/DTD/sodipodi-0.dtd"
   xmlns:inkscape="http://www.inkscape.org/namespaces/inkscape"
   width="210mm"
   height="297mm"
   viewBox="0 0 744.09448819 1052.3622047"
   id="svg2"
   version="1.1"
   inkscape:version="0.91 r13725"
   sodipodi:docname="tiles.svg">
  <sodipodi:namedview
     id="base"
     pagecolor="#ffffff"
     bordercolor="#666666"
     borderopacity="1.0"
     inkscape:pageopacity="0.0"
     inkscape:pageshadow="2"
     inkscape:zoom="0.7"
     inkscape:cx="960.66691"
     inkscape:cy="388.20377"
     inkscape:document-units="px"
     inkscape:current-layer="layer1"
     showgrid="false"
     inkscape:window-width="1680"
     inkscape:window-height="988"
     inkscape:window-x="1272"
     inkscape:window-y="-8"
     inkscape:window-maximized="1" />
  <defs
     id="defs4" />
  <metadata
     id="metadata7">
    <rdf:RDF>
      <cc:Work
         rdf:about="">
        <dc:format>image/svg+xml</dc:format>
        <dc:type
           rdf:resource="http://purl.org/dc/dcmitype/StillImage" />
        <dc:title></dc:title>
      </cc:Work>
    </rdf:RDF>
  </metadata>
  <g
     inkscape:label="Layer 1"
     inkscape:groupmode="layer"
     id="layer1">
    <g
       id="g5767"
       inkscape:export-filename="C:\Users\Bart\Desktop\apple.png"
       inkscape:export-xdpi="22.699478"
       inkscape:export-ydpi="22.699478">
      <path
         inkscape:export-ydpi="22.874533"
         inkscape:export-xdpi="22.874533"
         inkscape:export-filename="C:\Users\Bart\Desktop/apple.png"
         sodipodi:nodetypes="sssss"
         inkscape:connector-curvature="0"
         id="path4136"
         d="m 204.05082,179.08533 c 0,35.98402 -23.51755,65.15484 -52.52793,65.15484 -29.01038,0 -59.599001,-41.29265 -59.599001,-77.27667 0,-35.98403 19.476951,-54.04316 48.487321,-54.04316 57.29465,0 63.63961,30.18097 63.63961,66.16499 z"
         style="fill:#800000;stroke:none" />
      <path
         inkscape:export-ydpi="22.874533"
         inkscape:export-xdpi="22.874533"
         inkscape:export-filename="C:\Users\Bart\Desktop/apple.png"
         sodipodi:nodetypes="sssss"
         inkscape:connector-curvature="0"
         id="path4146"
         d="m 226.33259,87.752144 c 1.29503,6.079112 -3.89562,14.064206 -24.50196,16.708416 -36.73554,4.71392 -37.98911,-1.02918 -38.49427,-3.51856 -0.50515,-2.489389 -2.11777,-9.053631 33.71396,-18.03597 20.65008,-5.176585 27.85262,-1.865049 29.28227,4.846114 z"
         style="fill:#445500;stroke:none" />
      <path
         inkscape:export-ydpi="22.874533"
         inkscape:export-xdpi="22.874533"
         inkscape:export-filename="C:\Users\Bart\Desktop/apple.png"
         sodipodi:nodetypes="ccccc"
         inkscape:connector-curvature="0"
         id="rect4143"
         d="m 151.00096,93.711775 10.64032,-7.373814 14.95699,45.470849 -5.92987,-0.46743 z"
         style="fill:#803300;stroke:none" />
      <path
         inkscape:export-ydpi="22.874533"
         inkscape:export-xdpi="22.874533"
         inkscape:export-filename="C:\Users\Bart\Desktop/apple.png"
         style="fill:#800000;stroke:none"
         d="m 138.39091,180.09548 c 0,35.98402 23.51755,65.15484 52.52793,65.15484 29.01038,0 59.599,-41.29265 59.599,-77.27667 0,-35.98403 -19.47695,-54.04316 -48.48732,-54.04316 -57.29465,0 -63.63961,30.18097 -63.63961,66.16499 z"
         id="path4139"
         inkscape:connector-curvature="0"
         sodipodi:nodetypes="sssss" />
      <path
         inkscape:export-ydpi="22.874533"
         inkscape:export-xdpi="22.874533"
         inkscape:export-filename="C:\Users\Bart\Desktop/apple.png"
         style="fill:#aa0000;stroke:none"
         d="m 112.63202,143.51613 c -3.64867,8.38801 -5.11483,30.92774 -11.9694,31.77886 -6.573839,0.81626 -1.457396,-27.18651 1.36279,-35.00726 2.58482,-7.16802 14.41375,-19.24501 20.48972,-14.48794 5.37876,4.2112 -5.54553,7.74457 -9.88311,17.71634 z"
         id="path4141"
         inkscape:connector-curvature="0"
         sodipodi:nodetypes="sssss" />
    </g>
    <g
       id="g5784"
       inkscape:export-filename="C:\Users\Bart\Desktop\pear.png"
       inkscape:export-xdpi="22.12299"
       inkscape:export-ydpi="22.12299">
      <path
         inkscape:transform-center-y="-10.459172"
         inkscape:transform-center-x="6.4995577"
         style="fill:#803300;stroke:none"
         d="m 381.75444,85.041338 6.05826,-6.108358 15.28688,27.89718 -3.93128,0.41365 z"
         id="path5296"
         inkscape:connector-curvature="0"
         sodipodi:nodetypes="ccccc" />
      <path
         sodipodi:nodetypes="sssssss"
         inkscape:connector-curvature="0"
         id="path5283"
         d="m 455.57881,203.43585 c 0,33.99522 -25.20994,46.36015 -56.73084,46.36015 -31.52089,0 -57.4164,-12.36493 -57.4164,-46.36015 0,-14.178 2.77286,-25.59372 13.97941,-44.06189 14.17997,-23.3683 26.30264,-63.064713 44.12256,-63.072889 20.29293,-0.0093 29.06581,39.456189 43.35497,65.313769 7.59659,13.74675 12.6903,29.94403 12.6903,41.82101 z"
         style="fill:#668000" />
      <path
         style="fill:#88aa00"
         d="m 346.91612,192.85632 c 0,-11.28279 5.8308,-15.43901 13.86703,-30.77888 11.44866,-21.85365 23.96495,-59.09539 32.71306,-57.98475 16.04921,2.03757 -5.32066,-1.32574 -26.85673,64.05343 -9.27204,21.27715 -12.73621,29.73273 -19.72336,24.7102 z"
         id="path5286"
         inkscape:connector-curvature="0"
         sodipodi:nodetypes="csscc" />
    </g>
    <g
       id="g5789"
       inkscape:export-filename="C:\Users\Bart\Desktop\banana.png"
       inkscape:export-xdpi="22.852142"
       inkscape:export-ydpi="22.852142">
      <path
         sodipodi:nodetypes="sssss"
         inkscape:connector-curvature="0"
         id="path5298"
         d="m 637.80095,197.96671 c -20.71985,43.98237 -109.53442,61.33763 -123.22419,56.85089 -13.68978,-4.48673 52.92927,-29.1164 73.64912,-73.09876 20.71984,-43.98236 12.63517,-86.613178 26.32495,-82.126456 13.68978,4.486716 43.96997,54.391966 23.25012,98.374326 z"
         style="fill:#ffcc00" />
      <path
         sodipodi:nodetypes="ccccc"
         inkscape:connector-curvature="0"
         id="path5301"
         d="m 603.78949,93.874247 11.98523,-3.781719 7.93432,37.811442 -9.48994,-1.40954 z"
         style="fill:#ffcc00;stroke:none"
         inkscape:transform-center-x="11.067031"
         inkscape:transform-center-y="-16.000782" />
      <path
         style="fill:#c87137"
         d="m 598.04687,229.81405 c -26.58352,15.35211 -67.81112,25.05266 -69.63603,22.24974 -3.39121,-5.20864 49.95068,-11.93324 72.9714,-30.22097 23.02072,-18.28774 27.68696,-22.76376 31.40611,-24.19448 4.19731,-1.61467 -8.60391,17.07113 -34.74148,32.16571 z"
         id="path5303"
         inkscape:connector-curvature="0"
         sodipodi:nodetypes="sssss" />
    </g>
    <g
       id="g5812"
       inkscape:export-filename="C:\Users\Bart\Desktop\carrot.png"
       inkscape:export-xdpi="21.611145"
       inkscape:export-ydpi="21.611145">
      <path
         style="fill:#445500;stroke:none"
         d="m 326.23626,358.41419 c 4.07308,4.69496 3.39077,14.19439 -13.36776,26.47301 -29.87594,21.88949 -33.75026,17.4686 -35.39617,15.53386 -1.6459,-1.93473 -6.23154,-6.90079 20.78928,-32.08945 15.5723,-14.51642 23.4781,-15.10052 27.97465,-9.91742 z"
         id="path5319"
         inkscape:connector-curvature="0"
         sodipodi:nodetypes="sssss" />
      <path
         sodipodi:nodetypes="sszss"
         inkscape:connector-curvature="0"
         id="path5317"
         d="m 286.89022,338.87985 c -6.21472,0.10025 -12.83344,6.94842 -10.7924,27.62321 3.63863,36.85758 -1.71704,32.97268 1.64321,37.24773 3.36026,4.27506 19.71059,-0.48614 20.43436,-37.41951 0.41711,-21.28494 -4.42429,-27.56215 -11.28517,-27.45143 z"
         style="fill:#445500;stroke:none" />
      <path
         style="fill:#445500;stroke:none"
         d="m 347.84983,398.24614 c -0.81947,6.16128 -8.38823,11.94218 -28.68741,7.51999 -36.18798,-7.88358 -32.94961,-2.11395 -36.80665,-5.94679 -3.85704,-3.83285 2.76607,-19.52159 39.53466,-15.96227 21.18996,2.05127 26.86411,7.58721 25.9594,14.38907 z"
         id="path5315"
         inkscape:connector-curvature="0"
         sodipodi:nodetypes="sszss" />
      <path
         sodipodi:nodetypes="zzzz"
         inkscape:connector-curvature="0"
         id="rect5310"
         d="m 245.60482,358.6603 c 15.64676,-0.40416 73.88636,62.13524 72.18831,81.09625 -1.69804,18.96102 -131.69192,73.48325 -144.71735,59.17297 -13.02543,-14.31027 56.88228,-139.86506 72.52904,-140.26922 z"
         style="fill:#ff6600" />
      <path
         style="fill:#ff7f2a"
         d="m 240.77636,366.7176 c 7.6647,-4.14002 12.20165,-2.70171 6.57175,5.77126 -5.6299,8.47296 -60.53878,95.17743 -63.20444,92.41148 -2.66566,-2.76593 48.96799,-94.04271 56.63269,-98.18274 z"
         id="path5313"
         inkscape:connector-curvature="0"
         sodipodi:nodetypes="zzzz" />
    </g>
    <rect
       style="fill:none;stroke:#000000;stroke-width:0.93598056"
       id="rect5332"
       width="187.0388"
       height="176.11684"
       x="81.520447"
       y="591.09125"
       inkscape:export-filename="C:\Users\Bart\Desktop/apple.png"
       inkscape:export-xdpi="22.874533"
       inkscape:export-ydpi="22.874533" />
    <g
       id="g5794"
       inkscape:export-filename="C:\Users\Bart\Desktop\burger.png"
       inkscape:export-xdpi="21.530281"
       inkscape:export-ydpi="21.530281">
      <path
         style="fill:#c87137;stroke:none"
         d="m 590.04333,453.40818 c -58.70147,0.5759 -102.96472,0.45855 -166.07144,0.45855 -5.89206,33.09631 33.29039,36.68431 79.64286,36.68431 46.35247,0 92.33022,-3.24471 86.42858,-37.14286 z"
         id="path5337"
         inkscape:connector-curvature="0"
         sodipodi:nodetypes="ccsc" />
      <rect
         rx="5.7142859"
         ry="5.3571429"
         y="432.90317"
         x="418.4668"
         height="21.071415"
         width="177.49998"
         id="rect5339"
         style="fill:#552200;stroke:none" />
      <path
         sodipodi:nodetypes="cccccc"
         inkscape:connector-curvature="0"
         id="rect5343"
         d="m 424.31635,430.85349 163.98822,-0.21984 1.28227,2.71981 -30.24946,15.63815 -135.37817,-14.92386 z"
         style="fill:#ffcc00;stroke:none" />
      <rect
         style="fill:#552200;stroke:none"
         id="rect5350"
         width="177.49998"
         height="21.071415"
         x="419.18109"
         y="410.04602"
         ry="5.3571429"
         rx="5.7142859" />
      <path
         style="fill:#ffcc00;stroke:none"
         d="m 588.51541,408.98075 -165.59536,0.67302 0.1463,2.71981 31.12489,6.08194 134.68131,-6.26051 z"
         id="path5348"
         inkscape:connector-curvature="0"
         sodipodi:nodetypes="cccccc" />
      <path
         sodipodi:nodetypes="ccsc"
         inkscape:connector-curvature="0"
         id="path5334"
         d="m 589.64286,410.04074 c -58.70193,-0.44854 -102.96523,-0.35714 -166.07144,-0.35714 -5.53492,-9.50632 34.71896,-40.35715 81.07143,-40.35715 46.35247,0 91.61593,30.02714 85.00001,40.71429 z"
         style="fill:#c87137;stroke:none" />
      <ellipse
         transform="matrix(0.93572803,-0.35272234,0.35272234,0.93572803,0,0)"
         ry="2.3557837"
         rx="6.0284185"
         cy="524.0224"
         cx="283.76962"
         id="path5352"
         style="fill:#e9c6af;stroke:none" />
      <ellipse
         transform="matrix(0.92075111,0.39015047,-0.39015047,0.92075111,0,0)"
         style="fill:#e9c6af;stroke:none"
         id="ellipse5749"
         cx="589.71564"
         cy="162.32222"
         rx="6.0284185"
         ry="2.3557837" />
      <ellipse
         inkscape:transform-center-y="2.2107222e-005"
         inkscape:transform-center-x="0.35714286"
         transform="matrix(0.85524643,0.51822152,-0.51822152,0.85524643,0,0)"
         ry="2.3557837"
         rx="6.0284185"
         cy="61.631462"
         cx="622.39874"
         id="ellipse5751"
         style="fill:#e9c6af;stroke:none" />
      <ellipse
         transform="matrix(0.86120988,-0.50824949,0.50824949,0.86120988,0,0)"
         style="fill:#e9c6af;stroke:none"
         id="ellipse5753"
         cx="258.06851"
         cy="592.17285"
         rx="6.0284185"
         ry="2.3557837" />
      <ellipse
         transform="matrix(-0.46165747,-0.88705827,0.88705827,-0.46165747,0,0)"
         ry="2.3557837"
         rx="6.0284185"
         cy="302.2934"
         cx="-590.41791"
         id="ellipse5755"
         style="fill:#e9c6af;stroke:none" />
      <ellipse
         transform="matrix(0.89767415,-0.44065988,0.44065988,0.89767415,0,0)"
         style="fill:#e9c6af;stroke:none"
         id="ellipse5757"
         cx="329.60648"
         cy="595.34235"
         rx="6.0284185"
         ry="2.3557837" />
      <ellipse
         ry="2.3557837"
         rx="6.0284185"
         cy="390.25052"
         cx="527.86554"
         id="ellipse5759"
         style="fill:#e9c6af;stroke:none" />
      <ellipse
         transform="matrix(0.8025329,-0.59660786,0.59660786,0.8025329,0,0)"
         style="fill:#e9c6af;stroke:none"
         id="ellipse5761"
         cx="162.62564"
         cy="603.16528"
         rx="6.0284185"
         ry="2.3557837" />
      <ellipse
         transform="matrix(0.86438738,0.50282647,-0.50282647,0.86438738,0,0)"
         ry="2.3557837"
         rx="6.0284185"
         cy="101.1968"
         cx="599.30963"
         id="ellipse5763"
         style="fill:#e9c6af;stroke:none" />
      <ellipse
         transform="matrix(0.92295285,0.38491303,-0.38491303,0.92295285,0,0)"
         ry="2.3557837"
         rx="6.0284185"
         cy="163.43498"
         cx="619.19537"
         id="ellipse5765"
         style="fill:#e9c6af;stroke:none" />
    </g>
    <ellipse
       style="fill:#333333;stroke:none"
       id="path6757"
       cx="505"
       cy="530.2193"
       rx="96.428574"
       ry="15"
       inkscape:export-filename="C:\Users\Bart\Desktop\ld32\assets\graphics\shadow.png"
       inkscape:export-xdpi="21"
       inkscape:export-ydpi="21" />
  </g>
</svg>
